<?xml version="1.0" encoding="UTF-8" standalone="no"?>
<!-- Created with Inkscape (http://www.inkscape.org/) -->

<svg
   width="541.86664mm"
   height="203.2mm"
   viewBox="0 0 541.86664 203.2"
   version="1.1"
   id="svg1"
   xml:space="preserve"
   inkscape:version="1.4.2 (ebf0e940d0, 2025-05-08)"
   sodipodi:docname="sim_results_sweep_real.svg"
   inkscape:export-filename="sim_results_sweep_real.png"
   inkscape:export-xdpi="96"
   inkscape:export-ydpi="96"
   xmlns:inkscape="http://www.inkscape.org/namespaces/inkscape"
   xmlns:sodipodi="http://sodipodi.sourceforge.net/DTD/sodipodi-0.dtd"
   xmlns="http://www.w3.org/2000/svg"
   xmlns:svg="http://www.w3.org/2000/svg"><sodipodi:namedview
     id="namedview1"
     pagecolor="#ffffff"
     bordercolor="#000000"
     borderopacity="0.25"
     inkscape:showpageshadow="2"
     inkscape:pageopacity="0.0"
     inkscape:pagecheckerboard="0"
     inkscape:deskcolor="#d1d1d1"
     inkscape:document-units="mm"
     inkscape:zoom="0.51892186"
     inkscape:cx="224.50394"
     inkscape:cy="407.57582"
     inkscape:window-width="2560"
     inkscape:window-height="1379"
     inkscape:window-x="0"
     inkscape:window-y="0"
     inkscape:window-maximized="1"
     inkscape:current-layer="layer1" /><defs
     id="defs1" /><g
     inkscape:label="Layer 1"
     inkscape:groupmode="layer"
     id="layer1"
     transform="translate(30.691665,-46.831251)"><g
       style="font-style:normal;font-variant:normal;font-weight:normal;font-stretch:normal;font-size:medium;line-height:normal;font-family:Helvetica;fill:none"
       id="g1"
       transform="matrix(0.26458333,0,0,0.26458333,-30.691665,46.831251)"><rect
         x="0"
         y="0"
         width="1024"
         height="768"
         fill="#000000"
         stroke="none"
         id="rect1" /><text
         stroke="none"
         fill="#ffffff"
         font-size="16px"
         x="358"
         y="752"
         id="text1">time</text><text
         stroke="none"
         fill="#ffffff"
         font-size="16px"
         x="10"
         y="16"
         id="text2">tran1: ** sch_path: /foss/designs/xschem/adc-pipe-3b-top_tb-sweep.sch</text><path
         stroke="#ffffff"
         d="M 50,720 V 48"
         id="path2" /><text
         stroke="none"
         fill="#ffffff"
         font-size="16px"
         x="35"
         y="728"
         id="text3">0.0</text><path
         stroke="#ffffff"
         stroke-dasharray="1, 2"
         d="M 134,720 V 48"
         id="path3" /><text
         stroke="none"
         fill="#ffffff"
         font-size="16px"
         x="119"
         y="728"
         id="text4">1.0</text><path
         stroke="#ffffff"
         stroke-dasharray="1, 2"
         d="M 218,720 V 48"
         id="path4" /><text
         stroke="none"
         fill="#ffffff"
         font-size="16px"
         x="203"
         y="728"
         id="text5">2.0</text><path
         stroke="#ffffff"
         stroke-dasharray="1, 2"
         d="M 302,720 V 48"
         id="path5" /><text
         stroke="none"
         fill="#ffffff"
         font-size="16px"
         x="287"
         y="728"
         id="text6">3.0</text><path
         stroke="#ffffff"
         stroke-dasharray="1, 2"
         d="M 386,720 V 48"
         id="path6" /><text
         stroke="none"
         fill="#ffffff"
         font-size="16px"
         x="371"
         y="728"
         id="text7">4.0</text><path
         stroke="#ffffff"
         stroke-dasharray="1, 2"
         d="M 470,720 V 48"
         id="path7" /><text
         stroke="none"
         fill="#ffffff"
         font-size="16px"
         x="455"
         y="728"
         id="text8">5.0</text><path
         stroke="#ffffff"
         stroke-dasharray="1, 2"
         d="M 554,720 V 48"
         id="path8" /><text
         stroke="none"
         fill="#ffffff"
         font-size="16px"
         x="539"
         y="728"
         id="text9">6.0</text><path
         stroke="#ffffff"
         stroke-dasharray="1, 2"
         d="M 638,720 V 48"
         id="path9" /><text
         stroke="none"
         fill="#ffffff"
         font-size="16px"
         x="623"
         y="728"
         id="text10">7.0</text><path
         stroke="#ffffff"
         stroke-dasharray="1, 2"
         d="M 722,720 V 48"
         id="path10" /><text
         stroke="none"
         fill="#ffffff"
         font-size="16px"
         x="707"
         y="728"
         id="text11">8.0</text><path
         stroke="#ffffff"
         stroke-dasharray="1, 2"
         d="M 806,720 V 48"
         id="path11" /><text
         stroke="none"
         fill="#ffffff"
         font-size="16px"
         x="791"
         y="728"
         id="text12">9.0</text><path
         stroke="#ffffff"
         stroke-dasharray="1, 2"
         d="M 890,720 V 48"
         id="path12" /><text
         stroke="none"
         fill="#ffffff"
         font-size="16px"
         x="870"
         y="728"
         id="text13">10.0</text><path
         stroke="#ffffff"
         stroke-dasharray="1, 2"
         d="M 974,720 V 48"
         id="path13" /><text
         stroke="none"
         fill="#ffffff"
         font-size="16px"
         x="954"
         y="728"
         id="text14">11.0</text><text
         stroke="none"
         fill="#ffffff"
         font-size="16px"
         x="614"
         y="752"
         id="text15">ms</text><path
         stroke="#ffffff"
         stroke-dasharray="1, 2"
         d="M 50,720 H 974"
         id="path15" /><text
         stroke="none"
         fill="#ffffff"
         font-size="16px"
         x="8"
         y="728"
         id="text16">-1.5</text><path
         stroke="#ffffff"
         stroke-dasharray="1, 2"
         d="M 50,608 H 974"
         id="path16" /><text
         stroke="none"
         fill="#ffffff"
         font-size="16px"
         x="8"
         y="616"
         id="text17">-1.0</text><path
         stroke="#ffffff"
         stroke-dasharray="1, 2"
         d="M 50,496 H 974"
         id="path17" /><text
         stroke="none"
         fill="#ffffff"
         font-size="16px"
         x="8"
         y="504"
         id="text18">-0.5</text><path
         stroke="#ffffff"
         d="M 50,384 H 974"
         id="path18" /><text
         stroke="none"
         fill="#ffffff"
         font-size="16px"
         x="18"
         y="392"
         id="text19">0.0</text><path
         stroke="#ffffff"
         stroke-dasharray="1, 2"
         d="M 50,272 H 974"
         id="path19" /><text
         stroke="none"
         fill="#ffffff"
         font-size="16px"
         x="18"
         y="280"
         id="text20">0.5</text><path
         stroke="#ffffff"
         stroke-dasharray="1, 2"
         d="M 50,160 H 974"
         id="path20" /><text
         stroke="none"
         fill="#ffffff"
         font-size="16px"
         x="18"
         y="168"
         id="text21">1.0</text><path
         stroke="#ffffff"
         stroke-dasharray="1, 2"
         d="M 50,48 H 974"
         id="path21" /><text
         stroke="none"
         fill="#ffffff"
         font-size="16px"
         x="18"
         y="56"
         id="text22">1.5</text><text
         stroke="none"
         fill="#ffffff"
         font-size="16px"
         x="10"
         y="32"
         id="text23" /><path
         stroke="#ff0000"
         d="m 462,23 h 46"
         id="path23" /><text
         stroke="none"
         fill="#ffffff"
         font-size="16px"
         x="518"
         y="32"
         id="text24">vid</text><path
         stroke="#ff0000"
         d="m 54,48 h 1 m 0,2 v -2 m 0,2 h 1 m 0,2 v -2 m 0,2 h 1 m 0,1 v -1 m 0,1 h 1 m 0,2 v -2 m 0,2 h 1 m 0,1 v -1 m 0,1 h 1 m 0,2 v -2 m 0,2 h 1 m 0,2 v -2 m 0,2 h 1 m 0,1 v -1 m 0,1 h 1 m 0,2 v -2 m 0,2 h 1 m 0,1 v -1 m 0,1 h 1"
         id="path24" /><path
         stroke="#ff0000"
         d="m 65,66 v -2 m 0,2 h 1 m 0,2 v -2 m 0,2 h 1 m 0,1 v -1 m 0,1 h 1 m 0,2 v -2 m 0,2 h 1 m 0,1 v -1 m 0,1 h 1 m 0,2 v -2 m 0,2 h 1 m 0,2 v -2 m 0,2 h 1 m 0,1 v -1 m 0,1 h 1 m 0,2 v -2 m 0,2 h 1 m 0,1 v -1 m 0,1 h 1 m 0,2 v -2"
         id="path25" /><path
         stroke="#ff0000"
         d="m 75,82 h 1 m 0,2 v -2 m 0,2 h 1 m 0,1 v -1 m 0,1 h 1 m 0,2 v -2 m 0,2 h 1 m 0,1 v -1 m 0,1 h 1 m 0,2 v -2 m 0,2 h 1 m 0,2 v -2 m 0,2 h 1 m 0,1 v -1 m 0,1 h 1 m 0,2 v -2 m 0,2 h 1 m 0,1 v -1 m 0,1 h 1 m 0,2 v -2 m 0,2 h 1"
         id="path26" /><path
         stroke="#ff0000"
         d="m 86,100 v -2 m 0,2 h 1 m 0,1 v -1 m 0,1 h 1 m 0,2 v -2 m 0,2 h 1 m 0,1 v -1 m 0,1 h 1 m 0,2 v -2 m 0,2 h 1 m 0,2 v -2 m 0,2 h 1 m 0,1 v -1 m 0,1 h 1 m 0,2 v -2 m 0,2 h 1 m 0,1 v -1 m 0,1 h 1 m 0,2 v -2"
         id="path27" /><path
         stroke="#ff0000"
         d="m 95,114 h 1 m 0,2 v -2 m 0,2 h 1 m 0,1 v -1 m 0,1 h 1 m 0,2 v -2 m 0,2 h 1 m 0,1 v -1 m 0,1 h 1 m 0,2 v -2 m 0,2 h 1 m 0,2 v -2 m 0,2 h 1 m 0,1 v -1 m 0,1 h 1 m 0,2 v -2 m 0,2 h 1 m 0,1 v -1 m 0,1 h 1"
         id="path28" /><path
         stroke="#ff0000"
         d="m 105,130 v -2 m 0,2 h 1 m 0,2 v -2 m 0,2 h 1 m 0,1 v -1 m 0,1 h 1 m 0,2 v -2 m 0,2 h 1 m 0,1 v -1 m 0,1 h 1 m 0,2 v -2 m 0,2 h 1 m 0,2 v -2 m 0,2 h 1 m 0,1 v -1 m 0,1 h 1 m 0,2 v -2 m 0,2 h 1"
         id="path29" /><path
         stroke="#ff0000"
         d="m 114,144 v -1 m 0,1 h 1 m 0,2 v -2 m 0,2 h 1 m 0,2 v -2 m 0,2 h 1 m 0,1 v -1 m 0,1 h 1 m 0,2 v -2 m 0,2 h 1 m 0,1 v -1 m 0,1 h 1 m 0,2 v -2 m 0,2 h 1 m 0,2 v -2 m 0,2 h 1 m 0,1 v -1 m 0,1 h 1"
         id="path30" /><path
         stroke="#ff0000"
         d="m 123,159 v -2 m 0,2 h 1 m 0,1 v -1 m 0,1 h 1 m 0,2 v -2 m 0,2 h 1 m 0,2 v -2 m 0,2 h 1 m 0,1 v -1 m 0,1 h 1 m 0,2 v -2 m 0,2 h 1 m 0,1 v -1 m 0,1 h 1 m 0,2 v -2 m 0,2 h 1 m 0,2 v -2 m 0,2 h 1"
         id="path31" /><path
         stroke="#ff0000"
         d="m 132,173 v -1 m 0,1 h 1 m 0,2 v -2 m 0,2 h 1 m 0,1 v -1 m 0,1 h 1 m 0,2 v -2 m 0,2 h 1 m 0,2 v -2 m 0,2 h 1 m 0,1 v -1 m 0,1 h 1 m 0,2 v -2 m 0,2 h 1 m 0,1 v -1 m 0,1 h 1 m 0,2 v -2 m 0,2 h 1"
         id="path32" /><path
         stroke="#ff0000"
         d="m 141,188 v -2 m 0,2 h 1 m 0,1 v -1 m 0,1 h 1 m 0,2 v -2 m 0,2 h 1 m 0,1 v -1 m 0,1 h 1 m 0,2 v -2 m 0,2 h 1 m 0,2 v -2 m 0,2 h 1 m 0,1 v -1 m 0,1 h 1 m 0,2 v -2 m 0,2 h 1 m 0,1 v -1 m 0,1 h 1"
         id="path33" /><path
         stroke="#ff0000"
         d="m 150,202 v -2 m 0,2 h 1 m 0,2 v -2 m 0,2 h 1 m 0,1 v -1 m 0,1 h 1 m 0,2 v -2 m 0,2 h 1 m 0,1 v -1 m 0,1 h 1 m 0,2 v -2 m 0,2 h 1 m 0,2 v -2 m 0,2 h 1 m 0,1 v -1 m 0,1 h 1 m 0,2 v -2 m 0,2 h 1"
         id="path34" /><path
         stroke="#ff0000"
         d="m 159,216 v -1 m 0,1 h 1 m 0,2 v -2 m 0,2 h 1 m 0,2 v -2 m 0,2 h 1 m 0,1 v -1 m 0,1 h 1 m 0,2 v -2 m 0,2 h 1 m 0,1 v -1 m 0,1 h 1 m 0,2 v -2 m 0,2 h 1 m 0,2 v -2 m 0,2 h 1 m 0,1 v -1 m 0,1 h 1"
         id="path35" /><path
         stroke="#ff0000"
         d="m 168,231 v -2 m 0,2 h 1 m 0,1 v -1 m 0,1 h 1 m 0,2 v -2 m 0,2 h 1 m 0,2 v -2 m 0,2 h 1 m 0,1 v -1 m 0,1 h 1 m 0,2 v -2 m 0,2 h 1 m 0,1 v -1 m 0,1 h 1 m 0,2 v -2 m 0,2 h 1 m 0,2 v -2 m 0,2 h 1"
         id="path36" /><path
         stroke="#ff0000"
         d="m 177,245 v -1 m 0,1 h 1 m 0,2 v -2 m 0,2 h 1 m 0,1 v -1 m 0,1 h 1 m 0,2 v -2 m 0,2 h 1 m 0,2 v -2 m 0,2 h 1 m 0,1 v -1 m 0,1 h 1 m 0,2 v -2 m 0,2 h 1 m 0,1 v -1 m 0,1 h 1 m 0,2 v -2 m 0,2 h 1"
         id="path37" /><path
         stroke="#ff0000"
         d="m 186,260 v -2 m 0,2 h 1 m 0,1 v -1 m 0,1 h 1 m 0,2 v -2 m 0,2 h 1 m 0,1 v -1 m 0,1 h 1 m 0,2 v -2 m 0,2 h 1 m 0,2 v -2 m 0,2 h 1 m 0,1 v -1 m 0,1 h 1 m 0,2 v -2 m 0,2 h 1 m 0,1 v -1 m 0,1 h 1"
         id="path38" /><path
         stroke="#ff0000"
         d="m 195,274 v -2 m 0,2 h 1 m 0,2 v -2 m 0,2 h 1 m 0,1 v -1 m 0,1 h 1 m 0,2 v -2 m 0,2 h 1 m 0,1 v -1 m 0,1 h 1 m 0,2 v -2 m 0,2 h 1 m 0,2 v -2 m 0,2 h 1 m 0,1 v -1 m 0,1 h 1 m 0,2 v -2 m 0,2 h 1"
         id="path39" /><path
         stroke="#ff0000"
         d="m 204,288 v -1 m 0,1 h 1 m 0,2 v -2 m 0,2 h 1 m 0,2 v -2 m 0,2 h 1 m 0,1 v -1 m 0,1 h 1 m 0,2 v -2 m 0,2 h 1 m 0,1 v -1 m 0,1 h 1 m 0,2 v -2 m 0,2 h 1 m 0,2 v -2 m 0,2 h 1 m 0,1 v -1 m 0,1 h 1"
         id="path40" /><path
         stroke="#ff0000"
         d="m 213,303 v -2 m 0,2 h 1 m 0,1 v -1 m 0,1 h 1 m 0,2 v -2 m 0,2 h 1 m 0,2 v -2 m 0,2 h 1 m 0,1 v -1 m 0,1 h 1 m 0,2 v -2 m 0,2 h 1 m 0,1 v -1 m 0,1 h 1 m 0,2 v -2 m 0,2 h 1 m 0,2 v -2 m 0,2 h 1"
         id="path41" /><path
         stroke="#ff0000"
         d="m 222,317 v -1 m 0,1 h 1 m 0,2 v -2 m 0,2 h 1 m 0,1 v -1 m 0,1 h 1 m 0,2 v -2 m 0,2 h 1 m 0,2 v -2 m 0,2 h 1 m 0,1 v -1 m 0,1 h 1 m 0,2 v -2 m 0,2 h 1 m 0,1 v -1 m 0,1 h 1 m 0,2 v -2 m 0,2 h 1"
         id="path42" /><path
         stroke="#ff0000"
         d="m 231,332 v -2 m 0,2 h 1 m 0,1 v -1 m 0,1 h 1 m 0,2 v -2 m 0,2 h 1 m 0,1 v -1 m 0,1 h 1 m 0,2 v -2 m 0,2 h 1 m 0,2 v -2 m 0,2 h 1 m 0,1 v -1 m 0,1 h 1 m 0,2 v -2 m 0,2 h 1 m 0,1 v -1 m 0,1 h 1"
         id="path43" /><path
         stroke="#ff0000"
         d="m 240,346 v -2 m 0,2 h 1 m 0,2 v -2 m 0,2 h 1 m 0,1 v -1 m 0,1 h 1 m 0,2 v -2 m 0,2 h 1 m 0,1 v -1 m 0,1 h 1 m 0,2 v -2 m 0,2 h 1 m 0,2 v -2 m 0,2 h 1 m 0,1 v -1 m 0,1 h 1 m 0,2 v -2 m 0,2 h 1"
         id="path44" /><path
         stroke="#ff0000"
         d="m 249,360 v -1 m 0,1 h 1 m 0,2 v -2 m 0,2 h 1 m 0,2 v -2 m 0,2 h 1 m 0,1 v -1 m 0,1 h 1 m 0,2 v -2 m 0,2 h 1 m 0,1 v -1 m 0,1 h 1 m 0,2 v -2 m 0,2 h 1 m 0,2 v -2 m 0,2 h 1 m 0,1 v -1 m 0,1 h 1"
         id="path45" /><path
         stroke="#ff0000"
         d="m 258,375 v -2 m 0,2 h 1 m 0,1 v -1 m 0,1 h 1 m 0,2 v -2 m 0,2 h 1 m 0,2 v -2 m 0,2 h 1 m 0,1 v -1 m 0,1 h 1 m 0,2 v -2 m 0,2 h 1 m 0,1 v -1 m 0,1 h 1 m 0,2 v -2 m 0,2 h 1 m 0,2 v -2 m 0,2 h 1"
         id="path46" /><path
         stroke="#ff0000"
         d="m 267,389 v -1 m 0,1 h 1 m 0,2 v -2 m 0,2 h 1 m 0,1 v -1 m 0,1 h 1 m 0,2 v -2 m 0,2 h 1 m 0,2 v -2 m 0,2 h 1 m 0,1 v -1 m 0,1 h 1 m 0,2 v -2 m 0,2 h 1 m 0,1 v -1 m 0,1 h 1 m 0,2 v -2 m 0,2 h 1"
         id="path47" /><path
         stroke="#ff0000"
         d="m 276,404 v -2 m 0,2 h 1 m 0,1 v -1 m 0,1 h 1 m 0,2 v -2 m 0,2 h 1 m 0,1 v -1 m 0,1 h 1 m 0,2 v -2 m 0,2 h 1 m 0,2 v -2 m 0,2 h 1 m 0,1 v -1 m 0,1 h 1 m 0,2 v -2 m 0,2 h 1 m 0,1 v -1 m 0,1 h 1"
         id="path48" /><path
         stroke="#ff0000"
         d="m 285,418 v -2 m 0,2 h 1 m 0,2 v -2 m 0,2 h 1 m 0,1 v -1 m 0,1 h 1 m 0,2 v -2 m 0,2 h 1 m 0,1 v -1 m 0,1 h 1 m 0,2 v -2 m 0,2 h 1 m 0,2 v -2 m 0,2 h 1 m 0,1 v -1 m 0,1 h 1 m 0,2 v -2 m 0,2 h 1"
         id="path49" /><path
         stroke="#ff0000"
         d="m 294,432 v -1 m 0,1 h 1 m 0,2 v -2 m 0,2 h 1 m 0,2 v -2 m 0,2 h 1 m 0,1 v -1 m 0,1 h 1 m 0,2 v -2 m 0,2 h 1 m 0,1 v -1 m 0,1 h 1 m 0,2 v -2 m 0,2 h 1 m 0,2 v -2 m 0,2 h 1 m 0,1 v -1 m 0,1 h 1"
         id="path50" /><path
         stroke="#ff0000"
         d="m 303,447 v -2 m 0,2 h 1 m 0,1 v -1 m 0,1 h 1 m 0,2 v -2 m 0,2 h 1 m 0,2 v -2 m 0,2 h 1 m 0,1 v -1 m 0,1 h 1 m 0,2 v -2 m 0,2 h 1 m 0,1 v -1 m 0,1 h 1 m 0,2 v -2 m 0,2 h 1 m 0,2 v -2 m 0,2 h 1"
         id="path51" /><path
         stroke="#ff0000"
         d="m 312,461 v -1 m 0,1 h 1 m 0,2 v -2 m 0,2 h 1 m 0,1 v -1 m 0,1 h 1 m 0,2 v -2 m 0,2 h 1 m 0,2 v -2 m 0,2 h 1 m 0,1 v -1 m 0,1 h 1 m 0,2 v -2 m 0,2 h 1 m 0,1 v -1 m 0,1 h 1 m 0,2 v -2 m 0,2 h 1"
         id="path52" /><path
         stroke="#ff0000"
         d="m 321,476 v -2 m 0,2 h 1 m 0,1 v -1 m 0,1 h 1 m 0,2 v -2 m 0,2 h 1 m 0,1 v -1 m 0,1 h 1 m 0,2 v -2 m 0,2 h 1 m 0,2 v -2 m 0,2 h 1 m 0,1 v -1 m 0,1 h 1 m 0,2 v -2 m 0,2 h 1 m 0,1 v -1 m 0,1 h 1"
         id="path53" /><path
         stroke="#ff0000"
         d="m 330,490 v -2 m 0,2 h 1 m 0,2 v -2 m 0,2 h 1 m 0,1 v -1 m 0,1 h 1 m 0,2 v -2 m 0,2 h 1 m 0,1 v -1 m 0,1 h 1 m 0,2 v -2 m 0,2 h 1 m 0,2 v -2 m 0,2 h 1 m 0,1 v -1 m 0,1 h 1 m 0,2 v -2 m 0,2 h 1"
         id="path54" /><path
         stroke="#ff0000"
         d="m 339,504 v -1 m 0,1 h 1 m 0,2 v -2 m 0,2 h 1 m 0,2 v -2 m 0,2 h 1 m 0,1 v -1 m 0,1 h 1 m 0,2 v -2 m 0,2 h 1 m 0,1 v -1 m 0,1 h 1 m 0,2 v -2 m 0,2 h 1 m 0,2 v -2 m 0,2 h 1 m 0,1 v -1 m 0,1 h 1"
         id="path55" /><path
         stroke="#ff0000"
         d="m 348,519 v -2 m 0,2 h 1 m 0,1 v -1 m 0,1 h 1 m 0,2 v -2 m 0,2 h 1 m 0,2 v -2 m 0,2 h 1 m 0,1 v -1 m 0,1 h 1 m 0,2 v -2 m 0,2 h 1 m 0,1 v -1 m 0,1 h 1 m 0,2 v -2 m 0,2 h 1 m 0,2 v -2 m 0,2 h 1"
         id="path56" /><path
         stroke="#ff0000"
         d="m 357,533 v -1 m 0,1 h 1 m 0,2 v -2 m 0,2 h 1 m 0,1 v -1 m 0,1 h 1 m 0,2 v -2 m 0,2 h 1 m 0,2 v -2 m 0,2 h 1 m 0,1 v -1 m 0,1 h 1 m 0,2 v -2 m 0,2 h 1 m 0,1 v -1 m 0,1 h 1 m 0,2 v -2 m 0,2 h 1"
         id="path57" /><path
         stroke="#ff0000"
         d="m 366,548 v -2 m 0,2 h 1 m 0,1 v -1 m 0,1 h 1 m 0,2 v -2 m 0,2 h 1 m 0,1 v -1 m 0,1 h 1 m 0,2 v -2 m 0,2 h 1 m 0,2 v -2 m 0,2 h 1 m 0,1 v -1 m 0,1 h 1 m 0,2 v -2 m 0,2 h 1 m 0,1 v -1 m 0,1 h 1"
         id="path58" /><path
         stroke="#ff0000"
         d="m 375,562 v -2 m 0,2 h 1 m 0,2 v -2 m 0,2 h 1 m 0,1 v -1 m 0,1 h 1 m 0,2 v -2 m 0,2 h 1 m 0,1 v -1 m 0,1 h 1 m 0,2 v -2 m 0,2 h 1 m 0,2 v -2 m 0,2 h 1 m 0,1 v -1 m 0,1 h 1 m 0,2 v -2 m 0,2 h 1"
         id="path59" /><path
         stroke="#ff0000"
         d="m 384,576 v -1 m 0,1 h 1 m 0,2 v -2 m 0,2 h 1 m 0,2 v -2 m 0,2 h 1 m 0,1 v -1 m 0,1 h 1 m 0,2 v -2 m 0,2 h 1 m 0,1 v -1 m 0,1 h 1 m 0,2 v -2 m 0,2 h 1 m 0,2 v -2 m 0,2 h 1 m 0,1 v -1 m 0,1 h 1"
         id="path60" /><path
         stroke="#ff0000"
         d="m 393,591 v -2 m 0,2 h 1 m 0,1 v -1 m 0,1 h 1 m 0,2 v -2 m 0,2 h 1 m 0,2 v -2 m 0,2 h 1 m 0,1 v -1 m 0,1 h 1 m 0,2 v -2 m 0,2 h 1 m 0,1 v -1 m 0,1 h 1 m 0,2 v -2 m 0,2 h 1 m 0,2 v -2 m 0,2 h 1"
         id="path61" /><path
         stroke="#ff0000"
         d="m 402,605 v -1 m 0,1 h 1 m 0,2 v -2 m 0,2 h 1 m 0,1 v -1 m 0,1 h 1 m 0,2 v -2 m 0,2 h 1 m 0,2 v -2 m 0,2 h 1 m 0,1 v -1 m 0,1 h 1 m 0,2 v -2 m 0,2 h 1 m 0,1 v -1 m 0,1 h 1 m 0,2 v -2 m 0,2 h 1"
         id="path62" /><path
         stroke="#ff0000"
         d="m 411,620 v -2 m 0,2 h 1 m 0,1 v -1 m 0,1 h 1 m 0,2 v -2 m 0,2 h 1 m 0,1 v -1 m 0,1 h 1 m 0,2 v -2 m 0,2 h 1 m 0,2 v -2 m 0,2 h 1 m 0,1 v -1 m 0,1 h 1 m 0,2 v -2 m 0,2 h 1 m 0,1 v -1 m 0,1 h 1"
         id="path63" /><path
         stroke="#ff0000"
         d="m 420,634 v -2 m 0,2 h 1 m 0,2 v -2 m 0,2 h 1 m 0,1 v -1 m 0,1 h 1 m 0,2 v -2 m 0,2 h 1 m 0,1 v -1 m 0,1 h 1 m 0,2 v -2 m 0,2 h 1 m 0,2 v -2 m 0,2 h 1 m 0,1 v -1 m 0,1 h 1 m 0,2 v -2 m 0,2 h 1"
         id="path64" /><path
         stroke="#ff0000"
         d="m 429,648 v -1 m 0,1 h 1 m 0,2 v -2 m 0,2 h 1 m 0,2 v -2 m 0,2 h 1 m 0,1 v -1 m 0,1 h 1 m 0,2 v -2 m 0,2 h 1 m 0,1 v -1 m 0,1 h 1 m 0,2 v -2 m 0,2 h 1 m 0,2 v -2 m 0,2 h 1 m 0,1 v -1 m 0,1 h 1"
         id="path65" /><path
         stroke="#ff0000"
         d="m 438,663 v -2 m 0,2 h 1 m 0,1 v -1 m 0,1 h 1 m 0,2 v -2 m 0,2 h 1 m 0,2 v -2 m 0,2 h 1 m 0,1 v -1 m 0,1 h 1 m 0,2 v -2 m 0,2 h 1 m 0,1 v -1 m 0,1 h 1 m 0,2 v -2 m 0,2 h 1 m 0,2 v -2 m 0,2 h 1"
         id="path66" /><path
         stroke="#ff0000"
         d="m 447,677 v -1 m 0,1 h 1 m 0,2 v -2 m 0,2 h 1 m 0,1 v -1 m 0,1 h 1 m 0,2 v -2 m 0,2 h 1 m 0,2 v -2 m 0,2 h 1 m 0,1 v -1 m 0,1 h 1 m 0,2 v -2 m 0,2 h 1 m 0,1 v -1 m 0,1 h 1 m 0,2 v -2 m 0,2 h 1"
         id="path67" /><path
         stroke="#ff0000"
         d="m 456,692 v -2 m 0,2 h 1 m 0,1 v -1 m 0,1 h 1 m 0,2 v -2 m 0,2 h 1 m 0,1 v -1 m 0,1 h 1 m 0,2 v -2 m 0,2 h 1 m 0,2 v -2 m 0,2 h 1 m 0,1 v -1 m 0,1 h 1 m 0,2 v -2 m 0,2 h 1 m 0,1 v -1 m 0,1 h 1"
         id="path68" /><path
         stroke="#ff0000"
         d="m 465,706 v -2 m 0,2 h 1 m 0,2 v -2 m 0,2 h 1 m 0,1 v -1 m 0,1 h 1 m 0,2 v -2 m 0,2 h 1 m 0,1 v -1 m 0,1 h 1 m 0,2 v -2 m 0,2 h 1 m 0,2 v -2 m 0,2 h 1 m 0,1 v -1 m 0,1 h 1 m 0,2 v -2 m 0,2 h 1"
         id="path69" /><path
         stroke="#ff0000"
         d="m 474,720 v -1 m 0,1 h 1 v -1 h 1 v -1 h 1 v -2 h 1 v -2 h 1 v -1 h 1 v -2 h 1 v -1 h 1 v -2 h 1 v -2 h 1 v -1 h 1 v -2 h 1 v -1 h 1 v -2 h 1 v -2 h 1 v -1 h 1 v -2 h 1 v -1 h 1 v -2 h 1 v -2 h 1 v -1 h 1 v -2 h 1 v -1"
         id="path70" /><path
         stroke="#ff0000"
         d="m 496,686 h 1 v -2 h 1 v -2 h 1 v -1 h 1 v -2 h 1 v -1 h 1 v -2 h 1 v -2 h 1 v -1 h 1 v -2 h 1 v -1 h 1 v -2 h 1 v -2 h 1 v -1 h 1 v -2 h 1 v -1 h 1 v -2 h 1 v -2 h 1 v -1 h 1 v -2 h 1 v -1 h 1 v -2 h 1 v -2 h 1 v -1 h 1"
         id="path71" /><path
         stroke="#ff0000"
         d="m 520,649 v -2 h 1 v -1 h 1 v -2 h 1 v -2 h 1 v -1 h 1 v -2 h 1 v -1 h 1 v -2 h 1 v -2 h 1 v -1 h 1 v -2 h 1 v -1 h 1 v -2 h 1 v -2 h 1 v -1 h 1 v -2 h 1 v -1 h 1 v -2 h 1 v -2 h 1 v -1 h 1 v -2 h 1 v -1 h 1 v -2 h 1 v -2"
         id="path72" /><path
         stroke="#ff0000"
         d="m 543,610 h 1 v -1 h 1 v -2 h 1 v -1 h 1 v -2 h 1 v -2 h 1 v -1 h 1 v -2 h 1 v -1 h 1 v -2 h 1 v -2 h 1 v -1 h 1 v -2 h 1 v -1 h 1 v -2 h 1 v -2 h 1 v -1 h 1 v -2 h 1 v -1 h 1 v -2 h 1 v -2 h 1 v -1 h 1 v -2 h 1 v -1 h 1"
         id="path73" /><path
         stroke="#ff0000"
         d="m 567,574 v -2 h 1 v -2 h 1 v -1 h 1 v -2 h 1 v -1 h 1 v -2 h 1 v -2 h 1 v -1 h 1 v -2 h 1 v -1 h 1 v -2 h 1 v -2 h 1 v -1 h 1 v -2 h 1 v -1 h 1 v -2 h 1 v -2 h 1 v -1 h 1 v -2 h 1 v -1 h 1 v -2 h 1 v -2 h 1 v -1 h 1 v -2"
         id="path74" /><path
         stroke="#ff0000"
         d="m 590,535 h 1 v -1 h 1 v -2 h 1 v -2 h 1 v -1 h 1 v -2 h 1 v -1 h 1 v -2 h 1 v -2 h 1 v -1 h 1 v -2 h 1 v -1 h 1 v -2 h 1 v -2 h 1 v -1 h 1 v -2 h 1 v -1 h 1 v -2 h 1 v -2 h 1 v -1 h 1 v -2 h 1 v -1 h 1 v -2 h 1 v -2 h 1"
         id="path75" /><path
         stroke="#ff0000"
         d="m 614,498 v -1 h 1 v -2 h 1 v -1 h 1 v -2 h 1 v -2 h 1 v -1 h 1 v -2 h 1 v -1 h 1 v -2 h 1 v -2 h 1 v -1 h 1 v -2 h 1 v -1 h 1 v -2 h 1 v -2 h 1 v -1 h 1 v -2 h 1 v -1 h 1 v -2 h 1 v -2 h 1 v -1 h 1 v -2 h 1 v -1 h 1 v -2"
         id="path76" /><path
         stroke="#ff0000"
         d="m 637,460 h 1 v -2 h 1 v -1 h 1 v -2 h 1 v -1 h 1 v -2 h 1 v -2 h 1 v -1 h 1 v -2 h 1 v -1 h 1 v -2 h 1 v -2 h 1 v -1 h 1 v -2 h 1 v -1 h 1 v -2 h 1 v -2 h 1 v -1 h 1 v -2 h 1 v -1 h 1 v -2 h 1 v -2 h 1 v -1 h 1 v -2 h 1"
         id="path77" /><path
         stroke="#ff0000"
         d="m 661,423 v -1 h 1 v -2 h 1 v -2 h 1 v -1 h 1 v -2 h 1 v -1 h 1 v -2 h 1 v -2 h 1 v -1 h 1 v -2 h 1 v -1 h 1 v -2 h 1 v -2 h 1 v -1 h 1 v -2 h 1 v -1 h 1 v -2 h 1 v -2 h 1 v -1 h 1 v -2 h 1 v -1 h 1 v -2 h 1 v -2 h 1 v -1"
         id="path78" /><path
         stroke="#ff0000"
         d="m 684,385 h 1 v -2 h 1 v -1 h 1 v -2 h 1 v -2 h 1 v -1 h 1 v -2 h 1 v -1 h 1 v -2 h 1 v -2 h 1 v -1 h 1 v -2 h 1 v -1 h 1 v -2 h 1 v -2 h 1 v -1 h 1 v -2 h 1 v -1 h 1 v -2 h 1 v -2 h 1 v -1 h 1 v -2 h 1 v -1 h 1 v -2 h 1"
         id="path79" /><path
         stroke="#ff0000"
         d="m 708,348 v -2 h 1 v -1 h 1 v -2 h 1 v -1 h 1 v -2 h 1 v -2 h 1 v -1 h 1 v -2 h 1 v -1 h 1 v -2 h 1 v -2 h 1 v -1 h 1 v -2 h 1 v -1 h 1 v -2 h 1 v -2 h 1 v -1 h 1 v -2 h 1 v -1 h 1 v -2 h 1 v -2 h 1 v -1 h 1 v -2 h 1 v -1"
         id="path80" /><path
         stroke="#ff0000"
         d="m 731,310 h 1 v -2 h 1 v -2 h 1 v -1 h 1 v -2 h 1 v -1 h 1 v -2 h 1 v -2 h 1 v -1 h 1 v -2 h 1 v -1 h 1 v -2 h 1 v -2 h 1 v -1 h 1 v -2 h 1 v -1 h 1 v -2 h 1 v -2 h 1 v -1 h 1 v -2 h 1 v -1 h 1 v -2 h 1 v -2 h 1 v -1 h 1"
         id="path81" /><path
         stroke="#ff0000"
         d="m 755,273 v -2 h 1 v -1 h 1 v -2 h 1 v -2 h 1 v -1 h 1 v -2 h 1 v -1 h 1 v -2 h 1 v -2 h 1 v -1 h 1 v -2 h 1 v -1 h 1 v -2 h 1 v -2 h 1 v -1 h 1 v -2 h 1 v -1 h 1 v -2 h 1 v -2 h 1 v -1 h 1 v -2 h 1 v -1 h 1 v -2 h 1 v -2"
         id="path82" /><path
         stroke="#ff0000"
         d="m 778,234 h 1 v -1 h 1 v -2 h 1 v -1 h 1 v -2 h 1 v -2 h 1 v -1 h 1 v -2 h 1 v -1 h 1 v -2 h 1 v -2 h 1 v -1 h 1 v -2 h 1 v -1 h 1 v -2 h 1 v -2 h 1 v -1 h 1 v -2 h 1 v -1 h 1 v -2 h 1 v -2 h 1 v -1 h 1 v -2 h 1 v -1 h 1"
         id="path83" /><path
         stroke="#ff0000"
         d="m 802,198 v -2 h 1 v -2 h 1 v -1 h 1 v -2 h 1 v -1 h 1 v -2 h 1 v -2 h 1 v -1 h 1 v -2 h 1 v -1 h 1 v -2 h 1 v -2 h 1 v -1 h 1 v -2 h 1 v -1 h 1 v -2 h 1 v -2 h 1 v -1 h 1 v -2 h 1 v -1 h 1 v -2 h 1 v -2 h 1 v -1 h 1 v -2"
         id="path84" /><path
         stroke="#ff0000"
         d="m 825,159 h 1 v -1 h 1 v -2 h 1 v -2 h 1 v -1 h 1 v -2 h 1 v -1 h 1 v -2 h 1 v -2 h 1 v -1 h 1 v -2 h 1 v -1 h 1 v -2 h 1 v -2 h 1 v -1 h 1 v -2 h 1 v -1 h 1 v -2 h 1 v -2 h 1 v -1 h 1 v -2 h 1 v -1 h 1 v -2 h 1 v -2 h 1"
         id="path85" /><path
         stroke="#ff0000"
         d="m 849,122 v -1 h 1 v -2 h 1 v -1 h 1 v -2 h 1 v -2 h 1 v -1 h 1 v -2 h 1 v -1 h 1 v -2 h 1 v -2 h 1 v -1 h 1 v -2 h 1 v -1 h 1 v -2 h 1 v -2 h 1 v -1 h 1 v -2 h 1 v -1 h 1 v -2 h 1 v -2 h 1 v -1 h 1 v -2 h 1 v -1 h 1 v -2"
         id="path86" /><path
         stroke="#ff0000"
         d="m 872,84 h 1 v -2 h 1 v -1 h 1 v -2 h 1 v -1 h 1 v -2 h 1 v -2 h 1 v -1 h 1 v -2 h 1 v -1 h 1 v -2 h 1 v -2 h 1 v -1 h 1 v -2 h 1 v -1 h 1 v -2 h 1 v -2 h 1 v -1 h 1 v -2 h 1 v -1 h 1 v -2 h 1 v -2 h 1 v -1"
         id="path87" /><path
         stroke="#0000ff"
         d="M 50,23 H 96"
         id="path88" /><text
         stroke="none"
         fill="#ffffff"
         font-size="16px"
         x="106"
         y="32"
         id="text88">vdig_plt</text><path
         stroke="#0000ff"
         d="M 54,608 V 160 h 97 m 0,64 v -64 m 0,64 h 8 m 0,64 v -64 m 0,64 h 21 m 0,64 v -64 m 0,64 h 80 m 0,64 v -64 m 0,64 h 88 m 0,64 v -64 m 0,64 h 21 m 0,64 v -64 m 0,64 h 9 m 0,64 v -64 m 0,64 h 194 v -64 h 8 v -64"
         id="path89" /><path
         stroke="#0000ff"
         d="m 580,480 h 21 v -64 h 89 v -64 h 79 v -64 h 21 v -64 h 9 v -64 h 95"
         id="path90" /></g><g
       style="font-style:normal;font-variant:normal;font-weight:normal;font-stretch:normal;font-size:medium;line-height:normal;font-family:Helvetica;fill:none"
       id="g2"
       transform="matrix(0.26458333,0,0,0.26458333,240.24166,46.831251)"><rect
         x="0"
         y="0"
         width="1024"
         height="768"
         fill="#000000"
         stroke="none"
         id="rect1-5" /><text
         stroke="none"
         fill="#ffffff"
         font-size="16px"
         x="358"
         y="752"
         id="text1-5">time</text><text
         stroke="none"
         fill="#ffffff"
         font-size="16px"
         x="10"
         y="16"
         id="text2-4">tran1: ** sch_path: /foss/designs/xschem/adc-pipe-3b-top_tb-sweep.sch</text><path
         stroke="#ffffff"
         d="M 50,720 V 48"
         id="path2-7" /><text
         stroke="none"
         fill="#ffffff"
         font-size="16px"
         x="35"
         y="728"
         id="text3-6">0.0</text><path
         stroke="#ffffff"
         stroke-dasharray="1, 2"
         d="M 134,720 V 48"
         id="path3-5" /><text
         stroke="none"
         fill="#ffffff"
         font-size="16px"
         x="119"
         y="728"
         id="text4-6">1.0</text><path
         stroke="#ffffff"
         stroke-dasharray="1, 2"
         d="M 218,720 V 48"
         id="path4-9" /><text
         stroke="none"
         fill="#ffffff"
         font-size="16px"
         x="203"
         y="728"
         id="text5-3">2.0</text><path
         stroke="#ffffff"
         stroke-dasharray="1, 2"
         d="M 302,720 V 48"
         id="path5-7" /><text
         stroke="none"
         fill="#ffffff"
         font-size="16px"
         x="287"
         y="728"
         id="text6-4">3.0</text><path
         stroke="#ffffff"
         stroke-dasharray="1, 2"
         d="M 386,720 V 48"
         id="path6-5" /><text
         stroke="none"
         fill="#ffffff"
         font-size="16px"
         x="371"
         y="728"
         id="text7-2">4.0</text><path
         stroke="#ffffff"
         stroke-dasharray="1, 2"
         d="M 470,720 V 48"
         id="path7-5" /><text
         stroke="none"
         fill="#ffffff"
         font-size="16px"
         x="455"
         y="728"
         id="text8-4">5.0</text><path
         stroke="#ffffff"
         stroke-dasharray="1, 2"
         d="M 554,720 V 48"
         id="path8-7" /><text
         stroke="none"
         fill="#ffffff"
         font-size="16px"
         x="539"
         y="728"
         id="text9-4">6.0</text><path
         stroke="#ffffff"
         stroke-dasharray="1, 2"
         d="M 638,720 V 48"
         id="path9-4" /><text
         stroke="none"
         fill="#ffffff"
         font-size="16px"
         x="623"
         y="728"
         id="text10-3">7.0</text><path
         stroke="#ffffff"
         stroke-dasharray="1, 2"
         d="M 722,720 V 48"
         id="path10-0" /><text
         stroke="none"
         fill="#ffffff"
         font-size="16px"
         x="707"
         y="728"
         id="text11-7">8.0</text><path
         stroke="#ffffff"
         stroke-dasharray="1, 2"
         d="M 806,720 V 48"
         id="path11-8" /><text
         stroke="none"
         fill="#ffffff"
         font-size="16px"
         x="791"
         y="728"
         id="text12-6">9.0</text><path
         stroke="#ffffff"
         stroke-dasharray="1, 2"
         d="M 890,720 V 48"
         id="path12-8" /><text
         stroke="none"
         fill="#ffffff"
         font-size="16px"
         x="870"
         y="728"
         id="text13-8">10.0</text><path
         stroke="#ffffff"
         stroke-dasharray="1, 2"
         d="M 974,720 V 48"
         id="path13-4" /><text
         stroke="none"
         fill="#ffffff"
         font-size="16px"
         x="954"
         y="728"
         id="text14-3">11.0</text><text
         stroke="none"
         fill="#ffffff"
         font-size="16px"
         x="614"
         y="752"
         id="text15-1">ms</text><path
         stroke="#ffffff"
         d="M 50,720 H 974"
         id="path15-4" /><text
         stroke="none"
         fill="#ffffff"
         font-size="16px"
         x="18"
         y="728"
         id="text16-9">0.0</text><path
         stroke="#ffffff"
         stroke-dasharray="1, 2"
         d="M 50,624 H 974"
         id="path16-2" /><text
         stroke="none"
         fill="#ffffff"
         font-size="16px"
         x="18"
         y="632"
         id="text17-0">1.0</text><path
         stroke="#ffffff"
         stroke-dasharray="1, 2"
         d="M 50,528 H 974"
         id="path17-6" /><text
         stroke="none"
         fill="#ffffff"
         font-size="16px"
         x="18"
         y="536"
         id="text18-8">2.0</text><path
         stroke="#ffffff"
         stroke-dasharray="1, 2"
         d="M 50,432 H 974"
         id="path18-9" /><text
         stroke="none"
         fill="#ffffff"
         font-size="16px"
         x="18"
         y="440"
         id="text19-2">3.0</text><path
         stroke="#ffffff"
         stroke-dasharray="1, 2"
         d="M 50,336 H 974"
         id="path19-6" /><text
         stroke="none"
         fill="#ffffff"
         font-size="16px"
         x="18"
         y="344"
         id="text20-6">4.0</text><path
         stroke="#ffffff"
         stroke-dasharray="1, 2"
         d="M 50,240 H 974"
         id="path20-4" /><text
         stroke="none"
         fill="#ffffff"
         font-size="16px"
         x="18"
         y="248"
         id="text21-9">5.0</text><path
         stroke="#ffffff"
         stroke-dasharray="1, 2"
         d="M 50,144 H 974"
         id="path21-5" /><text
         stroke="none"
         fill="#ffffff"
         font-size="16px"
         x="18"
         y="152"
         id="text22-0">6.0</text><path
         stroke="#ffffff"
         stroke-dasharray="1, 2"
         d="M 50,48 H 974"
         id="path22" /><text
         stroke="none"
         fill="#ffffff"
         font-size="16px"
         x="18"
         y="56"
         id="text23-4">7.0</text><text
         stroke="none"
         fill="#ffffff"
         font-size="16px"
         x="10"
         y="32"
         id="text24-8" /><path
         stroke="#ff0000"
         d="m 462,23 h 46"
         id="path24-7" /><text
         stroke="none"
         fill="#ffffff"
         font-size="16px"
         x="518"
         y="32"
         id="text25">vdig</text><path
         stroke="#ff0000"
         d="M 54,720 V 48 h 97 m 0,96 V 48 m 0,96 h 8 m 0,96 v -96 m 0,96 h 21 m 0,96 v -96 m 0,96 h 80 m 0,96 v -96 m 0,96 h 88 m 0,96 v -96 m 0,96 h 21 m 0,96 v -96 m 0,96 h 9 m 0,96 v -96 m 0,96 h 194 v -96 h 8 v -96"
         id="path25-1" /><path
         stroke="#ff0000"
         d="m 580,528 h 21 v -96 h 89 v -96 h 79 v -96 h 21 v -96 h 9 V 48 h 95"
         id="path26-7" /></g></g></svg>
