<?xml version="1.0" encoding="UTF-8" standalone="no"?>
<!-- Created with Inkscape (http://www.inkscape.org/) -->

<svg
   width="1023.1851mm"
   height="345.26016mm"
   viewBox="0 0 1023.1851 345.26017"
   version="1.1"
   id="svg1"
   xml:space="preserve"
   inkscape:version="1.4.2 (ebf0e940d0, 2025-05-08)"
   sodipodi:docname="sim_results_sine_real.svg"
   inkscape:export-filename="sim_results_sine_real.png"
   inkscape:export-xdpi="96"
   inkscape:export-ydpi="96"
   xmlns:inkscape="http://www.inkscape.org/namespaces/inkscape"
   xmlns:sodipodi="http://sodipodi.sourceforge.net/DTD/sodipodi-0.dtd"
   xmlns="http://www.w3.org/2000/svg"
   xmlns:svg="http://www.w3.org/2000/svg"><sodipodi:namedview
     id="namedview1"
     pagecolor="#ffffff"
     bordercolor="#000000"
     borderopacity="0.25"
     inkscape:showpageshadow="2"
     inkscape:pageopacity="0.0"
     inkscape:pagecheckerboard="0"
     inkscape:deskcolor="#d1d1d1"
     inkscape:document-units="mm"
     inkscape:zoom="0.36693316"
     inkscape:cx="1808.2312"
     inkscape:cy="331.12297"
     inkscape:window-width="2560"
     inkscape:window-height="1379"
     inkscape:window-x="0"
     inkscape:window-y="0"
     inkscape:window-maximized="1"
     inkscape:current-layer="layer1" /><defs
     id="defs1" /><g
     inkscape:label="Layer 1"
     inkscape:groupmode="layer"
     id="layer1"
     transform="translate(-30.266868)"><g
       style="font-style:normal;font-variant:normal;font-weight:normal;font-stretch:normal;font-size:medium;line-height:normal;font-family:Helvetica;fill:none;stroke-width:0.558543"
       id="g6"
       transform="matrix(0.49960211,0,0,0.44914611,541.85943,0.15798095)"><rect
         x="0"
         y="0"
         width="1024"
         height="768"
         fill="#000000"
         stroke="none"
         id="rect1"
         style="stroke-width:0.558543" /><text
         stroke="none"
         fill="#ffffff"
         font-size="16px"
         x="358"
         y="752"
         id="text1"
         style="stroke-width:0.558543">time</text><text
         stroke="none"
         fill="#ffffff"
         font-size="16px"
         x="10"
         y="16"
         id="text2"
         style="stroke-width:0.558543">tran1: ** sch_path: /foss/designs/xschem/adc-pipe-3b-top_tb.sch</text><path
         stroke="#ffffff"
         d="M 50,720 V 48"
         id="path2"
         style="stroke-width:0.558543" /><text
         stroke="none"
         fill="#ffffff"
         font-size="16px"
         x="35"
         y="728"
         id="text3"
         style="stroke-width:0.558543">0.0</text><path
         stroke="#ffffff"
         stroke-dasharray="0.558543, 1.11708"
         d="M 134,720 V 48"
         id="path3"
         style="stroke-width:0.558543" /><text
         stroke="none"
         fill="#ffffff"
         font-size="16px"
         x="119"
         y="728"
         id="text4"
         style="stroke-width:0.558543">0.2</text><path
         stroke="#ffffff"
         stroke-dasharray="0.558543, 1.11708"
         d="M 218,720 V 48"
         id="path4"
         style="stroke-width:0.558543" /><text
         stroke="none"
         fill="#ffffff"
         font-size="16px"
         x="203"
         y="728"
         id="text5"
         style="stroke-width:0.558543">0.4</text><path
         stroke="#ffffff"
         stroke-dasharray="0.558543, 1.11708"
         d="M 302,720 V 48"
         id="path5"
         style="stroke-width:0.558543" /><text
         stroke="none"
         fill="#ffffff"
         font-size="16px"
         x="287"
         y="728"
         id="text6"
         style="stroke-width:0.558543">0.6</text><path
         stroke="#ffffff"
         stroke-dasharray="0.558543, 1.11708"
         d="M 386,720 V 48"
         id="path6"
         style="stroke-width:0.558543" /><text
         stroke="none"
         fill="#ffffff"
         font-size="16px"
         x="371"
         y="728"
         id="text7"
         style="stroke-width:0.558543">0.8</text><path
         stroke="#ffffff"
         stroke-dasharray="0.558543, 1.11708"
         d="M 470,720 V 48"
         id="path7"
         style="stroke-width:0.558543" /><text
         stroke="none"
         fill="#ffffff"
         font-size="16px"
         x="455"
         y="728"
         id="text8"
         style="stroke-width:0.558543">1.0</text><path
         stroke="#ffffff"
         stroke-dasharray="0.558543, 1.11708"
         d="M 554,720 V 48"
         id="path8"
         style="stroke-width:0.558543" /><text
         stroke="none"
         fill="#ffffff"
         font-size="16px"
         x="539"
         y="728"
         id="text9"
         style="stroke-width:0.558543">1.2</text><path
         stroke="#ffffff"
         stroke-dasharray="0.558543, 1.11708"
         d="M 638,720 V 48"
         id="path9"
         style="stroke-width:0.558543" /><text
         stroke="none"
         fill="#ffffff"
         font-size="16px"
         x="623"
         y="728"
         id="text10"
         style="stroke-width:0.558543">1.4</text><path
         stroke="#ffffff"
         stroke-dasharray="0.558543, 1.11708"
         d="M 722,720 V 48"
         id="path10"
         style="stroke-width:0.558543" /><text
         stroke="none"
         fill="#ffffff"
         font-size="16px"
         x="707"
         y="728"
         id="text11"
         style="stroke-width:0.558543">1.6</text><path
         stroke="#ffffff"
         stroke-dasharray="0.558543, 1.11708"
         d="M 806,720 V 48"
         id="path11"
         style="stroke-width:0.558543" /><text
         stroke="none"
         fill="#ffffff"
         font-size="16px"
         x="791"
         y="728"
         id="text12"
         style="stroke-width:0.558543">1.8</text><path
         stroke="#ffffff"
         stroke-dasharray="0.558543, 1.11708"
         d="M 890,720 V 48"
         id="path12"
         style="stroke-width:0.558543" /><text
         stroke="none"
         fill="#ffffff"
         font-size="16px"
         x="875"
         y="728"
         id="text13"
         style="stroke-width:0.558543">2.0</text><path
         stroke="#ffffff"
         stroke-dasharray="0.558543, 1.11708"
         d="M 974,720 V 48"
         id="path13"
         style="stroke-width:0.558543" /><text
         stroke="none"
         fill="#ffffff"
         font-size="16px"
         x="959"
         y="728"
         id="text14"
         style="stroke-width:0.558543">2.2</text><text
         stroke="none"
         fill="#ffffff"
         font-size="16px"
         x="614"
         y="752"
         id="text15"
         style="stroke-width:0.558543">ms</text><path
         stroke="#ffffff"
         d="M 50,720 H 974"
         id="path15"
         style="stroke-width:0.558543" /><text
         stroke="none"
         fill="#ffffff"
         font-size="16px"
         x="18"
         y="728"
         id="text16"
         style="stroke-width:0.558543">0.0</text><path
         stroke="#ffffff"
         stroke-dasharray="0.558543, 1.11708"
         d="M 50,624 H 974"
         id="path16"
         style="stroke-width:0.558543" /><text
         stroke="none"
         fill="#ffffff"
         font-size="16px"
         x="18"
         y="632"
         id="text17"
         style="stroke-width:0.558543">1.0</text><path
         stroke="#ffffff"
         stroke-dasharray="0.558543, 1.11708"
         d="M 50,528 H 974"
         id="path17"
         style="stroke-width:0.558543" /><text
         stroke="none"
         fill="#ffffff"
         font-size="16px"
         x="18"
         y="536"
         id="text18"
         style="stroke-width:0.558543">2.0</text><path
         stroke="#ffffff"
         stroke-dasharray="0.558543, 1.11708"
         d="M 50,432 H 974"
         id="path18"
         style="stroke-width:0.558543" /><text
         stroke="none"
         fill="#ffffff"
         font-size="16px"
         x="18"
         y="440"
         id="text19"
         style="stroke-width:0.558543">3.0</text><path
         stroke="#ffffff"
         stroke-dasharray="0.558543, 1.11708"
         d="M 50,336 H 974"
         id="path19"
         style="stroke-width:0.558543" /><text
         stroke="none"
         fill="#ffffff"
         font-size="16px"
         x="18"
         y="344"
         id="text20"
         style="stroke-width:0.558543">4.0</text><path
         stroke="#ffffff"
         stroke-dasharray="0.558543, 1.11708"
         d="M 50,240 H 974"
         id="path20"
         style="stroke-width:0.558543" /><text
         stroke="none"
         fill="#ffffff"
         font-size="16px"
         x="18"
         y="248"
         id="text21"
         style="stroke-width:0.558543">5.0</text><path
         stroke="#ffffff"
         stroke-dasharray="0.558543, 1.11708"
         d="M 50,144 H 974"
         id="path21"
         style="stroke-width:0.558543" /><text
         stroke="none"
         fill="#ffffff"
         font-size="16px"
         x="18"
         y="152"
         id="text22"
         style="stroke-width:0.558543">6.0</text><path
         stroke="#ffffff"
         stroke-dasharray="0.558543, 1.11708"
         d="M 50,48 H 974"
         id="path22"
         style="stroke-width:0.558543" /><text
         stroke="none"
         fill="#ffffff"
         font-size="16px"
         x="18"
         y="56"
         id="text23"
         style="stroke-width:0.558543">7.0</text><text
         stroke="none"
         fill="#ffffff"
         font-size="16px"
         x="10"
         y="32"
         id="text24"
         style="stroke-width:0.558543" /><path
         stroke="#ff0000"
         d="m 462,23 h 46"
         id="path24"
         style="stroke-width:0.558543" /><text
         stroke="none"
         fill="#ffffff"
         font-size="16px"
         x="518"
         y="32"
         id="text25"
         style="stroke-width:0.558543">vdig</text><path
         stroke="#ff0000"
         d="M 71,720 V 336 h 22 v -96 h 14 v -96 h 7 V 48 h 83 m 0,96 V 48 m 0,96 h 7 m 0,96 v -96 m 0,96 h 14 m 0,96 v -96 m 0,96 h 40 m 0,96 v -96 m 0,96 h 45 m 0,96 v -96 m 0,96 h 14 m 0,96 v -96 m 0,96 h 7 m 0,96 v -96"
         id="path25"
         style="stroke-width:0.558543" /><path
         stroke="#ff0000"
         d="m 324,720 h 83 v -96 h 7 v -96 h 14 v -96 h 45 v -96 h 40 v -96 h 14 v -96 h 7 V 48 h 83 m 0,96 V 48 m 0,96 h 7 m 0,96 v -96 m 0,96 h 14 m 0,96 v -96 m 0,96 h 40 m 0,96 v -96 m 0,96 h 45 m 0,96 v -96 m 0,96 h 14"
         id="path26"
         style="stroke-width:0.558543" /><path
         stroke="#ff0000"
         d="m 737,624 v -96 m 0,96 h 7 m 0,96 v -96 m 0,96 h 83 v -96 h 7 v -96 h 14 v -96 h 45 v -96 h 18"
         id="path27"
         style="stroke-width:0.558543" /></g><g
       style="font-style:normal;font-variant:normal;font-weight:normal;font-stretch:normal;font-size:medium;line-height:normal;font-family:Helvetica;fill:none;stroke-width:0.558287"
       id="g7"
       transform="matrix(0.49960211,0,0,0.44955752,30.266868,-4.9175782e-7)"><rect
         x="0"
         y="0"
         width="1024"
         height="768"
         fill="#000000"
         stroke="none"
         id="rect1-7"
         style="stroke-width:0.558287" /><text
         stroke="none"
         fill="#ffffff"
         font-size="16px"
         x="358"
         y="752"
         id="text1-0"
         style="stroke-width:0.558287">time</text><text
         stroke="none"
         fill="#ffffff"
         font-size="16px"
         x="10"
         y="16"
         id="text2-9"
         style="stroke-width:0.558287">tran1: ** sch_path: /foss/designs/xschem/adc-pipe-3b-top_tb.sch</text><path
         stroke="#ffffff"
         d="M 50,720 V 50"
         id="path2-3"
         style="stroke-width:0.558287" /><text
         stroke="none"
         fill="#ffffff"
         font-size="16px"
         x="35"
         y="728"
         id="text3-6"
         style="stroke-width:0.558287">0.0</text><path
         stroke="#ffffff"
         stroke-dasharray="0.558287, 1.11657"
         d="M 134,720 V 50"
         id="path3-0"
         style="stroke-width:0.558287" /><text
         stroke="none"
         fill="#ffffff"
         font-size="16px"
         x="119"
         y="728"
         id="text4-6"
         style="stroke-width:0.558287">0.2</text><path
         stroke="#ffffff"
         stroke-dasharray="0.558287, 1.11657"
         d="M 218,720 V 50"
         id="path4-2"
         style="stroke-width:0.558287" /><text
         stroke="none"
         fill="#ffffff"
         font-size="16px"
         x="203"
         y="728"
         id="text5-6"
         style="stroke-width:0.558287">0.4</text><path
         stroke="#ffffff"
         stroke-dasharray="0.558287, 1.11657"
         d="M 302,720 V 50"
         id="path5-1"
         style="stroke-width:0.558287" /><text
         stroke="none"
         fill="#ffffff"
         font-size="16px"
         x="287"
         y="728"
         id="text6-8"
         style="stroke-width:0.558287">0.6</text><path
         stroke="#ffffff"
         stroke-dasharray="0.558287, 1.11657"
         d="M 386,720 V 50"
         id="path6-7"
         style="stroke-width:0.558287" /><text
         stroke="none"
         fill="#ffffff"
         font-size="16px"
         x="371"
         y="728"
         id="text7-9"
         style="stroke-width:0.558287">0.8</text><path
         stroke="#ffffff"
         stroke-dasharray="0.558287, 1.11657"
         d="M 470,720 V 50"
         id="path7-2"
         style="stroke-width:0.558287" /><text
         stroke="none"
         fill="#ffffff"
         font-size="16px"
         x="455"
         y="728"
         id="text8-0"
         style="stroke-width:0.558287">1.0</text><path
         stroke="#ffffff"
         stroke-dasharray="0.558287, 1.11657"
         d="M 554,720 V 50"
         id="path8-2"
         style="stroke-width:0.558287" /><text
         stroke="none"
         fill="#ffffff"
         font-size="16px"
         x="539"
         y="728"
         id="text9-3"
         style="stroke-width:0.558287">1.2</text><path
         stroke="#ffffff"
         stroke-dasharray="0.558287, 1.11657"
         d="M 638,720 V 50"
         id="path9-7"
         style="stroke-width:0.558287" /><text
         stroke="none"
         fill="#ffffff"
         font-size="16px"
         x="623"
         y="728"
         id="text10-5"
         style="stroke-width:0.558287">1.4</text><path
         stroke="#ffffff"
         stroke-dasharray="0.558287, 1.11657"
         d="M 722,720 V 50"
         id="path10-9"
         style="stroke-width:0.558287" /><text
         stroke="none"
         fill="#ffffff"
         font-size="16px"
         x="707"
         y="728"
         id="text11-2"
         style="stroke-width:0.558287">1.6</text><path
         stroke="#ffffff"
         stroke-dasharray="0.558287, 1.11657"
         d="M 806,720 V 50"
         id="path11-2"
         style="stroke-width:0.558287" /><text
         stroke="none"
         fill="#ffffff"
         font-size="16px"
         x="791"
         y="728"
         id="text12-8"
         style="stroke-width:0.558287">1.8</text><path
         stroke="#ffffff"
         stroke-dasharray="0.558287, 1.11657"
         d="M 890,720 V 50"
         id="path12-9"
         style="stroke-width:0.558287" /><text
         stroke="none"
         fill="#ffffff"
         font-size="16px"
         x="875"
         y="728"
         id="text13-7"
         style="stroke-width:0.558287">2.0</text><path
         stroke="#ffffff"
         stroke-dasharray="0.558287, 1.11657"
         d="M 974,720 V 50"
         id="path13-3"
         style="stroke-width:0.558287" /><text
         stroke="none"
         fill="#ffffff"
         font-size="16px"
         x="959"
         y="728"
         id="text14-6"
         style="stroke-width:0.558287">2.2</text><text
         stroke="none"
         fill="#ffffff"
         font-size="16px"
         x="614"
         y="752"
         id="text15-1"
         style="stroke-width:0.558287">ms</text><path
         stroke="#ffffff"
         stroke-dasharray="0.558287, 1.11657"
         d="M 50,720 H 974"
         id="path15-2"
         style="stroke-width:0.558287" /><text
         stroke="none"
         fill="#ffffff"
         font-size="16px"
         x="8"
         y="728"
         id="text16-9"
         style="stroke-width:0.558287">-1.0</text><path
         stroke="#ffffff"
         stroke-dasharray="0.558287, 1.11657"
         d="M 50,653 H 974"
         id="path16-3"
         style="stroke-width:0.558287" /><text
         stroke="none"
         fill="#ffffff"
         font-size="16px"
         x="8"
         y="661"
         id="text17-1"
         style="stroke-width:0.558287">-0.8</text><path
         stroke="#ffffff"
         stroke-dasharray="0.558287, 1.11657"
         d="M 50,586 H 974"
         id="path17-9"
         style="stroke-width:0.558287" /><text
         stroke="none"
         fill="#ffffff"
         font-size="16px"
         x="8"
         y="594"
         id="text18-4"
         style="stroke-width:0.558287">-0.6</text><path
         stroke="#ffffff"
         stroke-dasharray="0.558287, 1.11657"
         d="M 50,519 H 974"
         id="path18-7"
         style="stroke-width:0.558287" /><text
         stroke="none"
         fill="#ffffff"
         font-size="16px"
         x="8"
         y="527"
         id="text19-8"
         style="stroke-width:0.558287">-0.4</text><path
         stroke="#ffffff"
         stroke-dasharray="0.558287, 1.11657"
         d="M 50,452 H 974"
         id="path19-4"
         style="stroke-width:0.558287" /><text
         stroke="none"
         fill="#ffffff"
         font-size="16px"
         x="8"
         y="460"
         id="text20-5"
         style="stroke-width:0.558287">-0.2</text><path
         stroke="#ffffff"
         d="M 50,385 H 974"
         id="path20-0"
         style="stroke-width:0.558287" /><text
         stroke="none"
         fill="#ffffff"
         font-size="16px"
         x="18"
         y="393"
         id="text21-3"
         style="stroke-width:0.558287">0.0</text><path
         stroke="#ffffff"
         stroke-dasharray="0.558287, 1.11657"
         d="M 50,318 H 974"
         id="path21-6"
         style="stroke-width:0.558287" /><text
         stroke="none"
         fill="#ffffff"
         font-size="16px"
         x="18"
         y="326"
         id="text22-1"
         style="stroke-width:0.558287">0.2</text><path
         stroke="#ffffff"
         stroke-dasharray="0.558287, 1.11657"
         d="M 50,251 H 974"
         id="path22-0"
         style="stroke-width:0.558287" /><text
         stroke="none"
         fill="#ffffff"
         font-size="16px"
         x="18"
         y="259"
         id="text23-6"
         style="stroke-width:0.558287">0.4</text><path
         stroke="#ffffff"
         stroke-dasharray="0.558287, 1.11657"
         d="M 50,184 H 974"
         id="path23"
         style="stroke-width:0.558287" /><text
         stroke="none"
         fill="#ffffff"
         font-size="16px"
         x="18"
         y="192"
         id="text24-3"
         style="stroke-width:0.558287">0.6</text><path
         stroke="#ffffff"
         stroke-dasharray="0.558287, 1.11657"
         d="M 50,117 H 974"
         id="path24-2"
         style="stroke-width:0.558287" /><text
         stroke="none"
         fill="#ffffff"
         font-size="16px"
         x="18"
         y="125"
         id="text25-0"
         style="stroke-width:0.558287">0.8</text><path
         stroke="#ffffff"
         stroke-dasharray="0.558287, 1.11657"
         d="M 50,50 H 974"
         id="path25-6"
         style="stroke-width:0.558287" /><text
         stroke="none"
         fill="#ffffff"
         font-size="16px"
         x="18"
         y="58"
         id="text26"
         style="stroke-width:0.558287">1.0</text><text
         stroke="none"
         fill="#ffffff"
         font-size="16px"
         x="10"
         y="32"
         id="text27"
         style="stroke-width:0.558287" /><path
         stroke="#ff0000"
         d="m 462,23 h 46"
         id="path27-1"
         style="stroke-width:0.558287" /><text
         stroke="none"
         fill="#ffffff"
         font-size="16px"
         x="518"
         y="32"
         id="text28"
         style="stroke-width:0.558287">vid</text><path
         stroke="#ff0000"
         d="m 71,281 v -2 h 1 v -5 h 1 v -4 h 1 v -5 h 1 v -5 h 1 v -4 h 1 v -5 h 1 v -4 l 1,-1 v -4 h 1 v -5 h 1 v -4 h 1 v -5 h 1 v -4 h 1 v -4 h 1 v -5 h 1 v -4 h 1 v -4 h 1 v -4 h 1 v -5 h 1 v -4 h 1 v -4 h 1 v -4 h 1 v -4 h 1 v -4"
         id="path28"
         style="stroke-width:0.558287" /><path
         stroke="#ff0000"
         d="m 94,178 h 1 v -4 h 1 v -4 h 1 v -3 l 1,-1 v -3 h 1 v -4 h 1 v -4 h 1 v -3 h 1 v -4 h 1 v -3 h 1 v -4 h 1 v -3 h 1 v -4 h 1 v -3 h 1 v -3 h 1 v -3 h 1 v -3 h 1 v -3 l 1,-1 v -3 h 1 v -2 l 1,-1 v -2 h 1 v -3 h 1 v -3 h 1 v -3 h 1"
         id="path29"
         style="stroke-width:0.558287" /><path
         stroke="#ff0000"
         d="m 118,101 v -2 h 1 v -3 h 1 v -2 h 1 v -3 h 1 v -2 h 1 v -2 h 1 v -3 h 1 v -2 h 1 v -2 h 1 v -2 h 1 v -2 h 1 v -2 h 1 v -2 h 1 v -2 h 1 v -1 h 1 v -2 h 1 v -1 h 1 v -2 h 1 v -1 h 1 v -2 h 1 v -1 h 1 v -1 h 1 v -1 h 1 v -1"
         id="path30"
         style="stroke-width:0.558287" /><path
         stroke="#ff0000"
         d="m 141,57 h 1 v -1 h 1 v -1 h 1 v -1 h 1 v -1 h 2 v -1 h 2 v -1 h 2 v -1 h 8 m 0,1 v -1 m 0,1 h 2 m 0,1 v -1 m 0,1 h 2 m 0,1 v -1 m 0,1 h 2 m 0,1 v -1 m 0,1 h 1 m 0,1 v -1 m 0,1 h 1 m 0,1 v -1 m 0,1 h 1 m 0,1 v -1"
         id="path31"
         style="stroke-width:0.558287" /><path
         stroke="#ff0000"
         d="m 168,57 h 1 m 0,1 v -1 m 0,1 h 1 m 0,1 v -1 m 0,1 h 1 m 0,1 v -1 m 0,1 h 1 m 0,1 v -1 m 0,1 h 1 m 0,2 v -2 m 0,2 h 1 m 0,1 v -1 m 0,1 h 1 m 0,2 v -2 m 0,2 h 1 m 0,1 v -1 m 0,1 h 1 m 0,2 v -2 m 0,2 h 1 m 0,1 v -1"
         id="path32"
         style="stroke-width:0.558287" /><path
         stroke="#ff0000"
         d="m 178,70 h 1 m 0,2 v -2 m 0,2 h 1 m 0,2 v -2 m 0,2 h 1 m 0,2 v -2 m 0,2 h 1 m 0,2 v -2 m 0,2 h 1 m 0,2 v -2 m 0,2 h 1 m 0,2 v -2 m 0,2 h 1 m 0,2 v -2 m 0,2 h 1 m 0,3 v -3 m 0,3 h 1 m 0,2 v -2 m 0,2 h 1 m 0,2 v -2"
         id="path33"
         style="stroke-width:0.558287" /><path
         stroke="#ff0000"
         d="m 188,91 h 1 m 0,3 v -3 m 0,3 h 1 m 0,2 v -2 m 0,2 h 1 m 0,3 v -3 m 0,3 h 1 m 0,2 v -2 m 0,2 h 1 m 0,3 v -3 m 0,3 h 1 m 0,3 v -3 m 0,3 h 1 m 0,3 v -3 m 0,3 h 1 m 0,3 v -3 m 0,3 h 1 m 0,2 v -2 m 0,2 h 1"
         id="path34"
         style="stroke-width:0.558287" /><path
         stroke="#ff0000"
         d="m 198,118 v -3 m 0,3 h 1 m 0,4 v -4 m 0,4 h 1 m 0,3 v -3 m 0,3 h 1 m 0,3 v -3 m 0,3 h 1 m 0,3 v -3 m 0,3 h 1 m 0,3 v -3 m 0,3 h 1 m 0,4 v -4 m 0,4 h 1 m 0,3 v -3 m 0,3 h 1 m 0,4 v -4 m 0,4 h 1"
         id="path35"
         style="stroke-width:0.558287" /><path
         stroke="#ff0000"
         d="m 207,148 v -3 m 0,3 h 1 m 0,4 v -4 m 0,4 h 1 m 0,3 v -3 m 0,3 h 1 m 0,4 v -4 m 0,4 h 1 m 0,4 v -4 m 0,4 h 1 m 0,3 v -3 m 0,3 1,1 m 0,3 v -3 m 0,3 h 1 m 0,4 v -4 m 0,4 h 1 m 0,4 v -4 m 0,4 h 1"
         id="path36"
         style="stroke-width:0.558287" /><path
         stroke="#ff0000"
         d="m 216,182 v -4 m 0,4 h 1 m 0,4 v -4 m 0,4 h 1 m 0,4 v -4 m 0,4 h 1 m 0,4 v -4 m 0,4 h 1 m 0,4 v -4 m 0,4 h 1 m 0,5 v -5 m 0,5 h 1 m 0,4 v -4 m 0,4 h 1 m 0,4 v -4 m 0,4 h 1 m 0,4 v -4 m 0,4 h 1"
         id="path37"
         style="stroke-width:0.558287" /><path
         stroke="#ff0000"
         d="m 225,220 v -5 m 0,5 h 1 m 0,4 v -4 m 0,4 h 1 m 0,4 v -4 m 0,4 1,1 m 0,4 v -4 m 0,4 h 1 m 0,4 v -4 m 0,4 h 1 m 0,5 v -5 m 0,5 h 1 m 0,4 v -4 m 0,4 1,1 m 0,4 v -4 m 0,4 h 1 m 0,5 v -5 m 0,5 h 1"
         id="path38"
         style="stroke-width:0.558287" /><path
         stroke="#ff0000"
         d="m 234,260 v -4 m 0,4 h 1 m 0,5 v -5 m 0,5 h 1 m 0,5 v -5 m 0,5 h 1 m 0,4 v -4 m 0,4 h 1 m 0,5 v -5 m 0,5 h 1 m 0,5 v -5 m 0,5 h 1 m 0,5 v -5 m 0,5 h 1 m 0,4 v -4 m 0,4 h 1 m 0,5 v -5 m 0,5 h 1"
         id="path39"
         style="stroke-width:0.558287" /><path
         stroke="#ff0000"
         d="m 243,303 v -5 m 0,5 h 1 m 0,5 v -5 m 0,5 h 1 m 0,5 v -5 m 0,5 h 1 m 0,5 v -5 m 0,5 h 1 m 0,5 v -5 m 0,5 h 1 m 0,5 v -5 m 0,5 h 1 m 0,5 v -5 m 0,5 h 1 m 0,4 v -4 m 0,4 1,1 m 0,5 v -5 m 0,5 h 1"
         id="path40"
         style="stroke-width:0.558287" /><path
         stroke="#ff0000"
         d="m 252,347 v -4 m 0,4 1,1 m 0,4 v -4 m 0,4 h 1 m 0,5 v -5 m 0,5 1,1 m 0,4 v -4 m 0,4 h 1 m 0,5 v -5 m 0,5 1,1 m 0,4 v -4 m 0,4 h 1 m 0,5 v -5 m 0,5 1,1 m 0,4 v -4 m 0,4 1,1 m 0,4 v -4 m 0,4 1,1"
         id="path41"
         style="stroke-width:0.558287" /><path
         stroke="#ff0000"
         d="m 261,392 v -4 m 0,4 1,1 m 0,4 v -4 m 0,4 1,1 m 0,5 v -5 m 0,5 h 1 m 0,5 v -5 m 0,5 h 1 m 0,5 v -5 m 0,5 h 1 m 0,5 v -5 m 0,5 h 1 m 0,4 v -4 m 0,4 1,1 m 0,4 v -4 m 0,4 h 1 m 0,5 v -5 m 0,5 h 1"
         id="path42"
         style="stroke-width:0.558287" /><path
         stroke="#ff0000"
         d="m 270,437 v -5 m 0,5 h 1 m 0,5 v -5 m 0,5 h 1 m 0,5 v -5 m 0,5 h 1 m 0,5 v -5 m 0,5 h 1 m 0,5 v -5 m 0,5 h 1 m 0,5 v -5 m 0,5 h 1 m 0,5 v -5 m 0,5 h 1 m 0,5 v -5 m 0,5 h 1 m 0,5 v -5 m 0,5 h 1"
         id="path43"
         style="stroke-width:0.558287" /><path
         stroke="#ff0000"
         d="m 279,481 v -4 m 0,4 h 1 m 0,5 v -5 m 0,5 h 1 m 0,5 v -5 m 0,5 h 1 m 0,5 v -5 m 0,5 h 1 m 0,4 v -4 m 0,4 h 1 m 0,5 v -5 m 0,5 h 1 m 0,5 v -5 m 0,5 h 1 m 0,4 v -4 m 0,4 h 1 m 0,5 v -5 m 0,5 h 1"
         id="path44"
         style="stroke-width:0.558287" /><path
         stroke="#ff0000"
         d="m 288,523 v -4 m 0,4 1,1 m 0,4 v -4 m 0,4 h 1 m 0,5 v -5 m 0,5 h 1 m 0,4 v -4 m 0,4 h 1 m 0,5 v -5 m 0,5 h 1 m 0,4 v -4 m 0,4 h 1 m 0,4 v -4 m 0,4 h 1 m 0,5 v -5 m 0,5 h 1 m 0,4 v -4 m 0,4 h 1"
         id="path45"
         style="stroke-width:0.558287" /><path
         stroke="#ff0000"
         d="m 297,563 v -4 m 0,4 h 1 m 0,4 v -4 m 0,4 h 1 m 0,5 v -5 m 0,5 h 1 m 0,4 v -4 m 0,4 h 1 m 0,4 v -4 m 0,4 h 1 m 0,4 v -4 m 0,4 h 1 m 0,4 v -4 m 0,4 h 1 m 0,4 v -4 m 0,4 h 1 m 0,4 v -4 m 0,4 h 1"
         id="path46"
         style="stroke-width:0.558287" /><path
         stroke="#ff0000"
         d="m 306,600 v -4 m 0,4 h 1 m 0,3 v -3 m 0,3 1,1 m 0,3 v -3 m 0,3 h 1 m 0,4 v -4 m 0,4 h 1 m 0,4 v -4 m 0,4 h 1 m 0,3 v -3 m 0,3 h 1 m 0,4 v -4 m 0,4 h 1 m 0,3 v -3 m 0,3 h 1 m 0,4 v -4 m 0,4 h 1"
         id="path47"
         style="stroke-width:0.558287" /><path
         stroke="#ff0000"
         d="m 315,632 v -3 m 0,3 h 1 m 0,4 v -4 m 0,4 h 1 m 0,3 v -3 m 0,3 h 1 m 0,3 v -3 m 0,3 h 1 m 0,3 v -3 m 0,3 h 1 m 0,3 v -3 m 0,3 h 1 m 0,3 v -3 m 0,3 1,1 m 0,3 v -3 m 0,3 h 1 m 0,2 v -2 m 0,2 h 1"
         id="path48"
         style="stroke-width:0.558287" /><path
         stroke="#ff0000"
         d="m 324,660 v -3 m 0,3 h 1 m 0,3 v -3 m 0,3 h 1 m 0,3 v -3 m 0,3 h 1 m 0,3 v -3 m 0,3 h 1 m 0,2 v -2 m 0,2 h 1 m 0,3 v -3 m 0,3 h 1 m 0,2 v -2 m 0,2 h 1 m 0,3 v -3 m 0,3 h 1 m 0,2 v -2 m 0,2 h 1"
         id="path49"
         style="stroke-width:0.558287" /><path
         stroke="#ff0000"
         d="m 333,683 v -2 m 0,2 h 1 m 0,3 v -3 m 0,3 h 1 m 0,2 v -2 m 0,2 h 1 m 0,2 v -2 m 0,2 h 1 m 0,2 v -2 m 0,2 h 1 m 0,2 v -2 m 0,2 h 1 m 0,2 v -2 m 0,2 h 1 m 0,2 v -2 m 0,2 h 1 m 0,2 v -2 m 0,2 h 1"
         id="path50"
         style="stroke-width:0.558287" /><path
         stroke="#ff0000"
         d="m 342,701 v -1 m 0,1 h 1 m 0,2 v -2 m 0,2 h 1 m 0,1 v -1 m 0,1 h 1 m 0,2 v -2 m 0,2 h 1 m 0,1 v -1 m 0,1 h 1 m 0,2 v -2 m 0,2 h 1 m 0,1 v -1 m 0,1 h 1 m 0,1 v -1 m 0,1 h 1 m 0,1 v -1 m 0,1 h 1"
         id="path51"
         style="stroke-width:0.558287" /><path
         stroke="#ff0000"
         d="m 351,713 v -1 m 0,1 h 1 m 0,1 v -1 m 0,1 h 1 m 0,1 v -1 m 0,1 h 1 m 0,1 v -1 m 0,1 h 1 m 0,1 v -1 m 0,1 h 2 m 0,1 v -1 m 0,1 h 2 m 0,1 v -1 m 0,1 h 2 m 0,1 v -1 m 0,1 h 8 v -1 h 2 v -1 h 2 v -1"
         id="path52"
         style="stroke-width:0.558287" /><path
         stroke="#ff0000"
         d="m 373,717 h 2 v -1 h 1 v -1 h 1 v -1 h 1 v -1 h 1 v -1 h 1 v -1 h 1 v -1 h 1 v -1 h 1 v -2 h 1 v -1 h 1 v -2 h 1 v -1 h 1 v -2 h 1 v -1 h 1 v -2 h 1 v -2 h 1 v -2 h 1 v -2 h 1 v -2 h 1 v -2 h 1 v -2 h 1 v -3 h 1 v -2 h 1"
         id="path53"
         style="stroke-width:0.558287" /><path
         stroke="#ff0000"
         d="m 398,681 v -2 h 1 v -3 h 1 v -2 h 1 v -3 h 1 v -2 h 1 v -3 h 1 v -3 h 1 v -3 h 1 v -3 h 1 v -2 h 1 v -3 h 1 v -4 h 1 v -3 h 1 v -3 h 1 v -3 h 1 v -3 h 1 v -4 h 1 v -3 h 1 v -4 h 1 v -3 h 1 v -4 h 1 v -3 h 1 v -4 h 1 v -4"
         id="path54"
         style="stroke-width:0.558287" /><path
         stroke="#ff0000"
         d="m 421,607 h 1 v -3 l 1,-1 v -3 h 1 v -4 h 1 v -4 h 1 v -4 h 1 v -4 h 1 v -4 h 1 v -4 h 1 v -4 h 1 v -5 h 1 v -4 h 1 v -4 h 1 v -4 h 1 v -5 h 1 v -4 h 1 v -4 l 1,-1 v -4 h 1 v -4 h 1 v -5 h 1 v -4 l 1,-1 v -4 h 1 v -5 h 1 v -4 h 1"
         id="path55"
         style="stroke-width:0.558287" /><path
         stroke="#ff0000"
         d="m 445,510 v -5 h 1 v -5 h 1 v -4 h 1 v -5 h 1 v -5 h 1 v -5 h 1 v -4 h 1 v -5 h 1 v -5 h 1 v -5 h 1 v -5 h 1 v -5 h 1 v -5 h 1 v -5 h 1 v -5 h 1 v -4 l 1,-1 v -5 h 1 v -4 l 1,-1 v -4 h 1 v -5 l 1,-1 v -4 h 1 v -5 l 1,-1 v -4 h 1"
         id="path56"
         style="stroke-width:0.558287" /><path
         stroke="#ff0000"
         d="m 468,398 v -5 l 1,-1 v -4 l 1,-1 v -5 h 1 v -5 h 1 v -4 l 1,-1 v -5 h 1 v -5 h 1 v -5 h 1 v -5 h 1 v -4 l 1,-1 v -4 h 1 v -5 h 1 v -5 h 1 v -5 h 1 v -5 h 1 v -5 h 1 v -5 h 1 v -5 h 1 v -5 h 1 v -5 h 1 v -5 h 1 v -4 h 1 v -5 h 1"
         id="path57"
         style="stroke-width:0.558287" /><path
         stroke="#ff0000"
         d="m 491,284 v -5 h 1 v -5 h 1 v -4 h 1 v -5 h 1 v -5 h 1 v -4 h 1 v -5 h 1 v -4 l 1,-1 v -4 h 1 v -5 h 1 v -4 h 1 v -5 h 1 v -4 h 1 v -4 h 1 v -5 h 1 v -4 h 1 v -4 h 1 v -4 h 1 v -5 h 1 v -4 h 1 v -4 h 1 v -4 h 1 v -4 h 1 v -4"
         id="path58"
         style="stroke-width:0.558287" /><path
         stroke="#ff0000"
         d="m 514,178 h 1 v -4 h 1 v -4 h 1 v -3 l 1,-1 v -3 h 1 v -4 h 1 v -4 h 1 v -3 h 1 v -4 h 1 v -3 h 1 v -4 h 1 v -3 h 1 v -4 h 1 v -3 h 1 v -3 h 1 v -3 h 1 v -3 h 1 v -3 l 1,-1 v -3 h 1 v -2 l 1,-1 v -2 h 1 v -3 h 1 v -3 h 1 v -3 h 1"
         id="path59"
         style="stroke-width:0.558287" /><path
         stroke="#ff0000"
         d="m 538,101 v -2 h 1 v -3 h 1 v -2 h 1 v -3 h 1 v -2 h 1 v -2 h 1 v -3 h 1 v -2 h 1 v -2 h 1 v -2 h 1 v -2 h 1 v -2 h 1 v -2 h 1 v -2 h 1 v -1 h 1 v -2 h 1 v -1 h 1 v -2 h 1 v -1 h 1 v -2 h 1 v -1 h 1 v -1 h 1 v -1 h 1 v -1"
         id="path60"
         style="stroke-width:0.558287" /><path
         stroke="#ff0000"
         d="m 561,57 h 1 v -1 h 1 v -1 h 1 v -1 h 1 v -1 h 2 v -1 h 2 v -1 h 2 v -1 h 8 m 0,1 v -1 m 0,1 h 2 m 0,1 v -1 m 0,1 h 2 m 0,1 v -1 m 0,1 h 2 m 0,1 v -1 m 0,1 h 1 m 0,1 v -1 m 0,1 h 1 m 0,1 v -1 m 0,1 h 1 m 0,1 v -1"
         id="path61"
         style="stroke-width:0.558287" /><path
         stroke="#ff0000"
         d="m 588,57 h 1 m 0,1 v -1 m 0,1 h 1 m 0,1 v -1 m 0,1 h 1 m 0,1 v -1 m 0,1 h 1 m 0,1 v -1 m 0,1 h 1 m 0,2 v -2 m 0,2 h 1 m 0,1 v -1 m 0,1 h 1 m 0,2 v -2 m 0,2 h 1 m 0,1 v -1 m 0,1 h 1 m 0,2 v -2 m 0,2 h 1 m 0,1 v -1"
         id="path62"
         style="stroke-width:0.558287" /><path
         stroke="#ff0000"
         d="m 598,70 h 1 m 0,2 v -2 m 0,2 h 1 m 0,2 v -2 m 0,2 h 1 m 0,2 v -2 m 0,2 h 1 m 0,2 v -2 m 0,2 h 1 m 0,2 v -2 m 0,2 h 1 m 0,2 v -2 m 0,2 h 1 m 0,2 v -2 m 0,2 h 1 m 0,3 v -3 m 0,3 h 1 m 0,2 v -2 m 0,2 h 1 m 0,2 v -2"
         id="path63"
         style="stroke-width:0.558287" /><path
         stroke="#ff0000"
         d="m 608,91 h 1 m 0,3 v -3 m 0,3 h 1 m 0,2 v -2 m 0,2 h 1 m 0,3 v -3 m 0,3 h 1 m 0,2 v -2 m 0,2 h 1 m 0,3 v -3 m 0,3 h 1 m 0,3 v -3 m 0,3 h 1 m 0,3 v -3 m 0,3 h 1 m 0,3 v -3 m 0,3 h 1 m 0,2 v -2 m 0,2 h 1"
         id="path64"
         style="stroke-width:0.558287" /><path
         stroke="#ff0000"
         d="m 618,118 v -3 m 0,3 h 1 m 0,4 v -4 m 0,4 h 1 m 0,3 v -3 m 0,3 h 1 m 0,3 v -3 m 0,3 h 1 m 0,3 v -3 m 0,3 h 1 m 0,3 v -3 m 0,3 h 1 m 0,4 v -4 m 0,4 h 1 m 0,3 v -3 m 0,3 h 1 m 0,4 v -4 m 0,4 h 1"
         id="path65"
         style="stroke-width:0.558287" /><path
         stroke="#ff0000"
         d="m 627,148 v -3 m 0,3 h 1 m 0,4 v -4 m 0,4 h 1 m 0,3 v -3 m 0,3 h 1 m 0,4 v -4 m 0,4 h 1 m 0,4 v -4 m 0,4 h 1 m 0,3 v -3 m 0,3 1,1 m 0,3 v -3 m 0,3 h 1 m 0,4 v -4 m 0,4 h 1 m 0,4 v -4 m 0,4 h 1"
         id="path66"
         style="stroke-width:0.558287" /><path
         stroke="#ff0000"
         d="m 636,182 v -4 m 0,4 h 1 m 0,4 v -4 m 0,4 h 1 m 0,4 v -4 m 0,4 h 1 m 0,4 v -4 m 0,4 h 1 m 0,4 v -4 m 0,4 h 1 m 0,5 v -5 m 0,5 h 1 m 0,4 v -4 m 0,4 h 1 m 0,4 v -4 m 0,4 h 1 m 0,4 v -4 m 0,4 h 1"
         id="path67"
         style="stroke-width:0.558287" /><path
         stroke="#ff0000"
         d="m 645,220 v -5 m 0,5 h 1 m 0,4 v -4 m 0,4 h 1 m 0,4 v -4 m 0,4 1,1 m 0,4 v -4 m 0,4 h 1 m 0,4 v -4 m 0,4 h 1 m 0,5 v -5 m 0,5 h 1 m 0,4 v -4 m 0,4 1,1 m 0,4 v -4 m 0,4 h 1 m 0,5 v -5 m 0,5 h 1"
         id="path68"
         style="stroke-width:0.558287" /><path
         stroke="#ff0000"
         d="m 654,260 v -4 m 0,4 h 1 m 0,5 v -5 m 0,5 h 1 m 0,5 v -5 m 0,5 h 1 m 0,4 v -4 m 0,4 h 1 m 0,5 v -5 m 0,5 h 1 m 0,5 v -5 m 0,5 h 1 m 0,5 v -5 m 0,5 h 1 m 0,4 v -4 m 0,4 h 1 m 0,5 v -5 m 0,5 h 1"
         id="path69"
         style="stroke-width:0.558287" /><path
         stroke="#ff0000"
         d="m 663,303 v -5 m 0,5 h 1 m 0,5 v -5 m 0,5 h 1 m 0,5 v -5 m 0,5 h 1 m 0,5 v -5 m 0,5 h 1 m 0,5 v -5 m 0,5 h 1 m 0,5 v -5 m 0,5 h 1 m 0,5 v -5 m 0,5 h 1 m 0,4 v -4 m 0,4 1,1 m 0,5 v -5 m 0,5 h 1"
         id="path70"
         style="stroke-width:0.558287" /><path
         stroke="#ff0000"
         d="m 672,347 v -4 m 0,4 1,1 m 0,4 v -4 m 0,4 h 1 m 0,5 v -5 m 0,5 1,1 m 0,4 v -4 m 0,4 h 1 m 0,5 v -5 m 0,5 1,1 m 0,4 v -4 m 0,4 h 1 m 0,5 v -5 m 0,5 1,1 m 0,4 v -4 m 0,4 1,1 m 0,5 v -5 m 0,5 h 1"
         id="path71"
         style="stroke-width:0.558287" /><path
         stroke="#ff0000"
         d="m 681,392 v -4 m 0,4 1,1 m 0,4 v -4 m 0,4 1,1 m 0,5 v -5 m 0,5 h 1 m 0,5 v -5 m 0,5 h 1 m 0,5 v -5 m 0,5 h 1 m 0,5 v -5 m 0,5 h 1 m 0,4 v -4 m 0,4 1,1 m 0,4 v -4 m 0,4 h 1 m 0,5 v -5 m 0,5 h 1"
         id="path72"
         style="stroke-width:0.558287" /><path
         stroke="#ff0000"
         d="m 690,437 v -5 m 0,5 h 1 m 0,5 v -5 m 0,5 h 1 m 0,5 v -5 m 0,5 h 1 m 0,5 v -5 m 0,5 h 1 m 0,5 v -5 m 0,5 h 1 m 0,5 v -5 m 0,5 h 1 m 0,5 v -5 m 0,5 h 1 m 0,5 v -5 m 0,5 h 1 m 0,5 v -5 m 0,5 h 1"
         id="path73"
         style="stroke-width:0.558287" /><path
         stroke="#ff0000"
         d="m 699,481 v -4 m 0,4 h 1 m 0,5 v -5 m 0,5 h 1 m 0,5 v -5 m 0,5 h 1 m 0,5 v -5 m 0,5 h 1 m 0,4 v -4 m 0,4 h 1 m 0,5 v -5 m 0,5 h 1 m 0,5 v -5 m 0,5 h 1 m 0,4 v -4 m 0,4 h 1 m 0,5 v -5 m 0,5 h 1"
         id="path74"
         style="stroke-width:0.558287" /><path
         stroke="#ff0000"
         d="m 708,523 v -4 m 0,4 1,1 m 0,4 v -4 m 0,4 h 1 m 0,5 v -5 m 0,5 h 1 m 0,4 v -4 m 0,4 h 1 m 0,5 v -5 m 0,5 h 1 m 0,4 v -4 m 0,4 h 1 m 0,4 v -4 m 0,4 h 1 m 0,5 v -5 m 0,5 h 1 m 0,4 v -4 m 0,4 h 1"
         id="path75"
         style="stroke-width:0.558287" /><path
         stroke="#ff0000"
         d="m 717,563 v -4 m 0,4 h 1 m 0,4 v -4 m 0,4 h 1 m 0,5 v -5 m 0,5 h 1 m 0,4 v -4 m 0,4 h 1 m 0,4 v -4 m 0,4 h 1 m 0,4 v -4 m 0,4 h 1 m 0,4 v -4 m 0,4 h 1 m 0,4 v -4 m 0,4 h 1 m 0,4 v -4 m 0,4 h 1"
         id="path76"
         style="stroke-width:0.558287" /><path
         stroke="#ff0000"
         d="m 726,600 v -4 m 0,4 h 1 m 0,3 v -3 m 0,3 1,1 m 0,3 v -3 m 0,3 h 1 m 0,4 v -4 m 0,4 h 1 m 0,4 v -4 m 0,4 h 1 m 0,3 v -3 m 0,3 h 1 m 0,4 v -4 m 0,4 h 1 m 0,3 v -3 m 0,3 h 1 m 0,4 v -4 m 0,4 h 1"
         id="path77"
         style="stroke-width:0.558287" /><path
         stroke="#ff0000"
         d="m 735,632 v -3 m 0,3 h 1 m 0,4 v -4 m 0,4 h 1 m 0,3 v -3 m 0,3 h 1 m 0,3 v -3 m 0,3 h 1 m 0,3 v -3 m 0,3 h 1 m 0,3 v -3 m 0,3 h 1 m 0,3 v -3 m 0,3 1,1 m 0,3 v -3 m 0,3 h 1 m 0,2 v -2 m 0,2 1,1"
         id="path78"
         style="stroke-width:0.558287" /><path
         stroke="#ff0000"
         d="m 744,660 v -2 m 0,2 h 1 m 0,3 v -3 m 0,3 h 1 m 0,3 v -3 m 0,3 h 1 m 0,3 v -3 m 0,3 h 1 m 0,2 v -2 m 0,2 h 1 m 0,3 v -3 m 0,3 h 1 m 0,2 v -2 m 0,2 h 1 m 0,3 v -3 m 0,3 h 1 m 0,2 v -2 m 0,2 h 1"
         id="path79"
         style="stroke-width:0.558287" /><path
         stroke="#ff0000"
         d="m 753,683 v -2 m 0,2 h 1 m 0,3 v -3 m 0,3 h 1 m 0,2 v -2 m 0,2 h 1 m 0,2 v -2 m 0,2 h 1 m 0,2 v -2 m 0,2 h 1 m 0,2 v -2 m 0,2 h 1 m 0,2 v -2 m 0,2 h 1 m 0,2 v -2 m 0,2 h 1 m 0,2 v -2 m 0,2 h 1"
         id="path80"
         style="stroke-width:0.558287" /><path
         stroke="#ff0000"
         d="m 762,701 v -1 m 0,1 h 1 m 0,2 v -2 m 0,2 h 1 m 0,1 v -1 m 0,1 h 1 m 0,2 v -2 m 0,2 h 1 m 0,1 v -1 m 0,1 h 1 m 0,2 v -2 m 0,2 h 1 m 0,1 v -1 m 0,1 h 1 m 0,1 v -1 m 0,1 h 1 m 0,1 v -1 m 0,1 h 1"
         id="path81"
         style="stroke-width:0.558287" /><path
         stroke="#ff0000"
         d="m 771,713 v -1 m 0,1 h 1 m 0,1 v -1 m 0,1 h 1 m 0,1 v -1 m 0,1 h 1 m 0,1 v -1 m 0,1 h 1 m 0,1 v -1 m 0,1 h 2 m 0,1 v -1 m 0,1 h 2 m 0,1 v -1 m 0,1 h 2 m 0,1 v -1 m 0,1 h 8 v -1 h 2 v -1 h 2 v -1"
         id="path82"
         style="stroke-width:0.558287" /><path
         stroke="#ff0000"
         d="m 793,717 h 2 v -1 h 1 v -1 h 1 v -1 h 1 v -1 h 1 v -1 h 1 v -1 h 1 v -1 h 1 v -1 h 1 v -2 h 1 v -1 h 1 v -2 h 1 v -1 h 1 v -2 h 1 v -1 h 1 v -2 h 1 v -2 h 1 v -2 h 1 v -2 h 1 v -2 h 1 v -2 h 1 v -2 h 1 v -3 h 1 v -2 h 1"
         id="path83"
         style="stroke-width:0.558287" /><path
         stroke="#ff0000"
         d="m 818,681 v -2 h 1 v -3 h 1 v -2 h 1 v -3 h 1 v -2 h 1 v -3 h 1 v -3 h 1 v -3 h 1 v -3 h 1 v -2 h 1 v -3 h 1 v -4 h 1 v -3 h 1 v -3 h 1 v -3 h 1 v -3 h 1 v -4 h 1 v -3 h 1 v -4 h 1 v -3 h 1 v -4 h 1 v -3 h 1 v -4 h 1 v -4"
         id="path84"
         style="stroke-width:0.558287" /><path
         stroke="#ff0000"
         d="m 841,607 h 1 v -3 l 1,-1 v -3 h 1 v -4 h 1 v -4 h 1 v -4 h 1 v -4 h 1 v -4 h 1 v -4 h 1 v -4 h 1 v -5 h 1 v -4 h 1 v -4 h 1 v -4 h 1 v -5 h 1 v -4 h 1 v -4 l 1,-1 v -4 h 1 v -4 h 1 v -5 h 1 v -4 l 1,-1 v -4 h 1 v -5 h 1 v -4 h 1"
         id="path85"
         style="stroke-width:0.558287" /><path
         stroke="#ff0000"
         d="m 865,510 v -5 h 1 v -5 h 1 v -4 h 1 v -5 h 1 v -5 h 1 v -5 h 1 v -4 h 1 v -5 h 1 v -5 h 1 v -5 h 1 v -5 h 1 v -5 h 1 v -5 h 1 v -5 h 1 v -5 h 1 v -4 l 1,-1 v -5 h 1 v -4 l 1,-1 v -4 h 1 v -5 l 1,-1 v -4 h 1 v -5 l 1,-1 v -4 h 1"
         id="path86"
         style="stroke-width:0.558287" /><path
         stroke="#ff0000"
         d="m 888,398 v -5 l 1,-1 v -4 l 1,-1 v -5 h 1 v -5 h 1 v -4 l 1,-1 v -5 h 1 v -5 h 1 v -5 h 1 v -5 h 1 v -4 l 1,-1 v -4 h 1 v -5 h 1 v -5 h 1 v -5 h 1 v -5 h 1 v -5 h 1 v -5 h 1 v -5 h 1 v -5 h 1 v -5 h 1 v -5 h 1 v -4 h 1 v -5 h 1"
         id="path87"
         style="stroke-width:0.558287" /><path
         stroke="#ff0000"
         d="m 911,284 v -3"
         id="path88"
         style="stroke-width:0.558287" /><path
         stroke="#0000ff"
         d="M 50,23 H 96"
         id="path89"
         style="stroke-width:0.558287" /><text
         stroke="none"
         fill="#ffffff"
         font-size="16px"
         x="106"
         y="32"
         id="text89"
         style="stroke-width:0.558287">vdig_plt</text><path
         stroke="#0000ff"
         d="M 71,720 V 337 h 22 v -96 h 14 v -95 h 7 V 50 h 83 m 0,96 V 50 m 0,96 h 7 m 0,95 v -95 m 0,95 h 14 m 0,96 v -96 m 0,96 h 40 m 0,96 v -96 m 0,96 h 45 m 0,96 v -96 m 0,96 h 14 m 0,95 v -95 m 0,95 h 7 m 0,96 v -96"
         id="path90"
         style="stroke-width:0.558287" /><path
         stroke="#0000ff"
         d="m 324,720 h 83 v -96 h 7 v -95 h 14 v -96 h 45 v -96 h 40 v -96 h 14 v -95 h 7 V 50 h 83 m 0,96 V 50 m 0,96 h 7 m 0,95 v -95 m 0,95 h 14 m 0,96 v -96 m 0,96 h 40 m 0,96 v -96 m 0,96 h 45 m 0,96 v -96 m 0,96 h 14"
         id="path91"
         style="stroke-width:0.558287" /><path
         stroke="#0000ff"
         d="m 737,624 v -95 m 0,95 h 7 m 0,96 v -96 m 0,96 h 83 v -96 h 7 v -95 h 14 v -96 h 45 v -96 h 18"
         id="path92"
         style="stroke-width:0.558287" /></g></g></svg>
