<?xml version="1.0" standalone="yes"?>
<!DOCTYPE svg PUBLIC "-//W3C//DTD SVG 1.1//EN"
 "http://www.w3.org/Graphics/SVG/1.1/DTD/svg11.dtd">
<svg xmlns="http://www.w3.org/2000/svg" version="1.1"
  width="100%" height="100%" viewBox="0 0 1024 768"
  style="fill: none; font-family: Helvetica;
 font: Helvetica;
">

<!-- Creator: NGspice -->

<rect x="0" y="0" width="1024" height="768" fill="black" stroke="none"/>
<text stroke="none" fill="white" font-size="16" x="358" y="752">
time
</text>
<text stroke="none" fill="white" font-size="16" x="10" y="16">
tran1: ** sch_path: /foss/designs/xschem/adc-pipe-3b-top_tb.sch
</text>
<path stroke="white" d="M50 720l0 -670"/>
<text stroke="none" fill="white" font-size="16" x="35" y="728">
0.0
</text>
<path stroke="white" stroke-dasharray="1,2" d="M134 720l0 -670"/>
<text stroke="none" fill="white" font-size="16" x="119" y="728">
0.2
</text>
<path stroke="white" stroke-dasharray="1,2" d="M218 720l0 -670"/>
<text stroke="none" fill="white" font-size="16" x="203" y="728">
0.4
</text>
<path stroke="white" stroke-dasharray="1,2" d="M302 720l0 -670"/>
<text stroke="none" fill="white" font-size="16" x="287" y="728">
0.6
</text>
<path stroke="white" stroke-dasharray="1,2" d="M386 720l0 -670"/>
<text stroke="none" fill="white" font-size="16" x="371" y="728">
0.8
</text>
<path stroke="white" stroke-dasharray="1,2" d="M470 720l0 -670"/>
<text stroke="none" fill="white" font-size="16" x="455" y="728">
1.0
</text>
<path stroke="white" stroke-dasharray="1,2" d="M554 720l0 -670"/>
<text stroke="none" fill="white" font-size="16" x="539" y="728">
1.2
</text>
<path stroke="white" stroke-dasharray="1,2" d="M638 720l0 -670"/>
<text stroke="none" fill="white" font-size="16" x="623" y="728">
1.4
</text>
<path stroke="white" stroke-dasharray="1,2" d="M722 720l0 -670"/>
<text stroke="none" fill="white" font-size="16" x="707" y="728">
1.6
</text>
<path stroke="white" stroke-dasharray="1,2" d="M806 720l0 -670"/>
<text stroke="none" fill="white" font-size="16" x="791" y="728">
1.8
</text>
<path stroke="white" stroke-dasharray="1,2" d="M890 720l0 -670"/>
<text stroke="none" fill="white" font-size="16" x="875" y="728">
2.0
</text>
<path stroke="white" stroke-dasharray="1,2" d="M974 720l0 -670"/>
<text stroke="none" fill="white" font-size="16" x="959" y="728">
2.2
</text>
<text stroke="none" fill="white" font-size="16" x="614" y="752">
ms
</text>
<path stroke="white" stroke-dasharray="1,2" d="M50 720l924 0"/>
<text stroke="none" fill="white" font-size="16" x="8" y="728">
-1.0
</text>
<path stroke="white" stroke-dasharray="1,2" d="M50 653l924 0"/>
<text stroke="none" fill="white" font-size="16" x="8" y="661">
-0.8
</text>
<path stroke="white" stroke-dasharray="1,2" d="M50 586l924 0"/>
<text stroke="none" fill="white" font-size="16" x="8" y="594">
-0.6
</text>
<path stroke="white" stroke-dasharray="1,2" d="M50 519l924 0"/>
<text stroke="none" fill="white" font-size="16" x="8" y="527">
-0.4
</text>
<path stroke="white" stroke-dasharray="1,2" d="M50 452l924 0"/>
<text stroke="none" fill="white" font-size="16" x="8" y="460">
-0.2
</text>
<path stroke="white" d="M50 385l924 0"/>
<text stroke="none" fill="white" font-size="16" x="18" y="393">
0.0
</text>
<path stroke="white" stroke-dasharray="1,2" d="M50 318l924 0"/>
<text stroke="none" fill="white" font-size="16" x="18" y="326">
0.2
</text>
<path stroke="white" stroke-dasharray="1,2" d="M50 251l924 0"/>
<text stroke="none" fill="white" font-size="16" x="18" y="259">
0.4
</text>
<path stroke="white" stroke-dasharray="1,2" d="M50 184l924 0"/>
<text stroke="none" fill="white" font-size="16" x="18" y="192">
0.6
</text>
<path stroke="white" stroke-dasharray="1,2" d="M50 117l924 0"/>
<text stroke="none" fill="white" font-size="16" x="18" y="125">
0.8
</text>
<path stroke="white" stroke-dasharray="1,2" d="M50 50l924 0"/>
<text stroke="none" fill="white" font-size="16" x="18" y="58">
1.0
</text>
<text stroke="none" fill="white" font-size="16" x="10" y="32">
     
</text>
<path stroke="red" d="M462 23l46 0"/>
<text stroke="none" fill="white" font-size="16" x="518" y="32">
vid
</text>
<path stroke="red" d="M71 281l0 -2 1 0 0 -5 1 0 0 -4 1 0 0 -5 1 0 0 -5 1 0 0 -4 1 0 0 -5 1 0 0 -4 1 -1 0 -4 1 0 0 -5 1 0 0 -4 1 0 0 -5 1 0 0 -4 1 0 0 -4 1 0 0 -5 1 0 0 -4 1 0 0 -4 1 0 0 -4 1 0 0 -5 1 0 0 -4 1 0 0 -4 1 0 0 -4 1 0 0 -4 1 0 0 -4"/>
<path stroke="red" d="M94 178l1 0 0 -4 1 0 0 -4 1 0 0 -3 1 -1 0 -3 1 0 0 -4 1 0 0 -4 1 0 0 -3 1 0 0 -4 1 0 0 -3 1 0 0 -4 1 0 0 -3 1 0 0 -4 1 0 0 -3 1 0 0 -3 1 0 0 -3 1 0 0 -3 1 0 0 -3 1 -1 0 -3 1 0 0 -2 1 -1 0 -2 1 0 0 -3 1 0 0 -3 1 0 0 -3 1 0"/>
<path stroke="red" d="M118 101l0 -2 1 0 0 -3 1 0 0 -2 1 0 0 -3 1 0 0 -2 1 0 0 -2 1 0 0 -3 1 0 0 -2 1 0 0 -2 1 0 0 -2 1 0 0 -2 1 0 0 -2 1 0 0 -2 1 0 0 -2 1 0 0 -1 1 0 0 -2 1 0 0 -1 1 0 0 -2 1 0 0 -1 1 0 0 -2 1 0 0 -1 1 0 0 -1 1 0 0 -1 1 0 0 -1"/>
<path stroke="red" d="M141 57l1 0 0 -1 1 0 0 -1 1 0 0 -1 1 0 0 -1 2 0 0 -1 2 0 0 -1 2 0 0 -1 8 0M159 51l0 -1M159 51l2 0M161 52l0 -1M161 52l2 0M163 53l0 -1M163 53l2 0M165 54l0 -1M165 54l1 0M166 55l0 -1M166 55l1 0M167 56l0 -1M167 56l1 0M168 57l0 -1"/>
<path stroke="red" d="M168 57l1 0M169 58l0 -1M169 58l1 0M170 59l0 -1M170 59l1 0M171 60l0 -1M171 60l1 0M172 61l0 -1M172 61l1 0M173 63l0 -2M173 63l1 0M174 64l0 -1M174 64l1 0M175 66l0 -2M175 66l1 0M176 67l0 -1M176 67l1 0M177 69l0 -2M177 69l1 0M178 70l0 -1"/>
<path stroke="red" d="M178 70l1 0M179 72l0 -2M179 72l1 0M180 74l0 -2M180 74l1 0M181 76l0 -2M181 76l1 0M182 78l0 -2M182 78l1 0M183 80l0 -2M183 80l1 0M184 82l0 -2M184 82l1 0M185 84l0 -2M185 84l1 0M186 87l0 -3M186 87l1 0M187 89l0 -2M187 89l1 0M188 91l0 -2"/>
<path stroke="red" d="M188 91l1 0M189 94l0 -3M189 94l1 0M190 96l0 -2M190 96l1 0M191 99l0 -3M191 99l1 0M192 101l0 -2M192 101l1 0M193 104l0 -3M193 104l1 0M194 107l0 -3M194 107l1 0M195 110l0 -3M195 110l1 0M196 113l0 -3M196 113l1 0M197 115l0 -2M197 115l1 0"/>
<path stroke="red" d="M198 118l0 -3M198 118l1 0M199 122l0 -4M199 122l1 0M200 125l0 -3M200 125l1 0M201 128l0 -3M201 128l1 0M202 131l0 -3M202 131l1 0M203 134l0 -3M203 134l1 0M204 138l0 -4M204 138l1 0M205 141l0 -3M205 141l1 0M206 145l0 -4M206 145l1 0"/>
<path stroke="red" d="M207 148l0 -3M207 148l1 0M208 152l0 -4M208 152l1 0M209 155l0 -3M209 155l1 0M210 159l0 -4M210 159l1 0M211 163l0 -4M211 163l1 0M212 166l0 -3M212 166l1 1M213 170l0 -3M213 170l1 0M214 174l0 -4M214 174l1 0M215 178l0 -4M215 178l1 0"/>
<path stroke="red" d="M216 182l0 -4M216 182l1 0M217 186l0 -4M217 186l1 0M218 190l0 -4M218 190l1 0M219 194l0 -4M219 194l1 0M220 198l0 -4M220 198l1 0M221 203l0 -5M221 203l1 0M222 207l0 -4M222 207l1 0M223 211l0 -4M223 211l1 0M224 215l0 -4M224 215l1 0"/>
<path stroke="red" d="M225 220l0 -5M225 220l1 0M226 224l0 -4M226 224l1 0M227 228l0 -4M227 228l1 1M228 233l0 -4M228 233l1 0M229 237l0 -4M229 237l1 0M230 242l0 -5M230 242l1 0M231 246l0 -4M231 246l1 1M232 251l0 -4M232 251l1 0M233 256l0 -5M233 256l1 0"/>
<path stroke="red" d="M234 260l0 -4M234 260l1 0M235 265l0 -5M235 265l1 0M236 270l0 -5M236 270l1 0M237 274l0 -4M237 274l1 0M238 279l0 -5M238 279l1 0M239 284l0 -5M239 284l1 0M240 289l0 -5M240 289l1 0M241 293l0 -4M241 293l1 0M242 298l0 -5M242 298l1 0"/>
<path stroke="red" d="M243 303l0 -5M243 303l1 0M244 308l0 -5M244 308l1 0M245 313l0 -5M245 313l1 0M246 318l0 -5M246 318l1 0M247 323l0 -5M247 323l1 0M248 328l0 -5M248 328l1 0M249 333l0 -5M249 333l1 0M250 337l0 -4M250 337l1 1M251 343l0 -5M251 343l1 0"/>
<path stroke="red" d="M252 347l0 -4M252 347l1 1M253 352l0 -4M253 352l1 0M254 357l0 -5M254 357l1 1M255 362l0 -4M255 362l1 0M256 367l0 -5M256 367l1 1M257 372l0 -4M257 372l1 0M258 377l0 -5M258 377l1 1M259 382l0 -4M259 382l1 1M260 387l0 -4M260 387l1 1"/>
<path stroke="red" d="M261 392l0 -4M261 392l1 1M262 397l0 -4M262 397l1 1M263 403l0 -5M263 403l1 0M264 408l0 -5M264 408l1 0M265 413l0 -5M265 413l1 0M266 418l0 -5M266 418l1 0M267 422l0 -4M267 422l1 1M268 427l0 -4M268 427l1 0M269 432l0 -5M269 432l1 0"/>
<path stroke="red" d="M270 437l0 -5M270 437l1 0M271 442l0 -5M271 442l1 0M272 447l0 -5M272 447l1 0M273 452l0 -5M273 452l1 0M274 457l0 -5M274 457l1 0M275 462l0 -5M275 462l1 0M276 467l0 -5M276 467l1 0M277 472l0 -5M277 472l1 0M278 477l0 -5M278 477l1 0"/>
<path stroke="red" d="M279 481l0 -4M279 481l1 0M280 486l0 -5M280 486l1 0M281 491l0 -5M281 491l1 0M282 496l0 -5M282 496l1 0M283 500l0 -4M283 500l1 0M284 505l0 -5M284 505l1 0M285 510l0 -5M285 510l1 0M286 514l0 -4M286 514l1 0M287 519l0 -5M287 519l1 0"/>
<path stroke="red" d="M288 523l0 -4M288 523l1 1M289 528l0 -4M289 528l1 0M290 533l0 -5M290 533l1 0M291 537l0 -4M291 537l1 0M292 542l0 -5M292 542l1 0M293 546l0 -4M293 546l1 0M294 550l0 -4M294 550l1 0M295 555l0 -5M295 555l1 0M296 559l0 -4M296 559l1 0"/>
<path stroke="red" d="M297 563l0 -4M297 563l1 0M298 567l0 -4M298 567l1 0M299 572l0 -5M299 572l1 0M300 576l0 -4M300 576l1 0M301 580l0 -4M301 580l1 0M302 584l0 -4M302 584l1 0M303 588l0 -4M303 588l1 0M304 592l0 -4M304 592l1 0M305 596l0 -4M305 596l1 0"/>
<path stroke="red" d="M306 600l0 -4M306 600l1 0M307 603l0 -3M307 603l1 1M308 607l0 -3M308 607l1 0M309 611l0 -4M309 611l1 0M310 615l0 -4M310 615l1 0M311 618l0 -3M311 618l1 0M312 622l0 -4M312 622l1 0M313 625l0 -3M313 625l1 0M314 629l0 -4M314 629l1 0"/>
<path stroke="red" d="M315 632l0 -3M315 632l1 0M316 636l0 -4M316 636l1 0M317 639l0 -3M317 639l1 0M318 642l0 -3M318 642l1 0M319 645l0 -3M319 645l1 0M320 648l0 -3M320 648l1 0M321 651l0 -3M321 651l1 1M322 655l0 -3M322 655l1 0M323 657l0 -2M323 657l1 0"/>
<path stroke="red" d="M324 660l0 -3M324 660l1 0M325 663l0 -3M325 663l1 0M326 666l0 -3M326 666l1 0M327 669l0 -3M327 669l1 0M328 671l0 -2M328 671l1 0M329 674l0 -3M329 674l1 0M330 676l0 -2M330 676l1 0M331 679l0 -3M331 679l1 0M332 681l0 -2M332 681l1 0"/>
<path stroke="red" d="M333 683l0 -2M333 683l1 0M334 686l0 -3M334 686l1 0M335 688l0 -2M335 688l1 0M336 690l0 -2M336 690l1 0M337 692l0 -2M337 692l1 0M338 694l0 -2M338 694l1 0M339 696l0 -2M339 696l1 0M340 698l0 -2M340 698l1 0M341 700l0 -2M341 700l1 0"/>
<path stroke="red" d="M342 701l0 -1M342 701l1 0M343 703l0 -2M343 703l1 0M344 704l0 -1M344 704l1 0M345 706l0 -2M345 706l1 0M346 707l0 -1M346 707l1 0M347 709l0 -2M347 709l1 0M348 710l0 -1M348 710l1 0M349 711l0 -1M349 711l1 0M350 712l0 -1M350 712l1 0"/>
<path stroke="red" d="M351 713l0 -1M351 713l1 0M352 714l0 -1M352 714l1 0M353 715l0 -1M353 715l1 0M354 716l0 -1M354 716l1 0M355 717l0 -1M355 717l2 0M357 718l0 -1M357 718l2 0M359 719l0 -1M359 719l2 0M361 720l0 -1M361 720l8 0 0 -1 2 0 0 -1 2 0 0 -1"/>
<path stroke="red" d="M373 717l2 0 0 -1 1 0 0 -1 1 0 0 -1 1 0 0 -1 1 0 0 -1 1 0 0 -1 1 0 0 -1 1 0 0 -1 1 0 0 -2 1 0 0 -1 1 0 0 -2 1 0 0 -1 1 0 0 -2 1 0 0 -1 1 0 0 -2 1 0 0 -2 1 0 0 -2 1 0 0 -2 1 0 0 -2 1 0 0 -2 1 0 0 -2 1 0 0 -3 1 0 0 -2 1 0"/>
<path stroke="red" d="M398 681l0 -2 1 0 0 -3 1 0 0 -2 1 0 0 -3 1 0 0 -2 1 0 0 -3 1 0 0 -3 1 0 0 -3 1 0 0 -3 1 0 0 -2 1 0 0 -3 1 0 0 -4 1 0 0 -3 1 0 0 -3 1 0 0 -3 1 0 0 -3 1 0 0 -4 1 0 0 -3 1 0 0 -4 1 0 0 -3 1 0 0 -4 1 0 0 -3 1 0 0 -4 1 0 0 -4"/>
<path stroke="red" d="M421 607l1 0 0 -3 1 -1 0 -3 1 0 0 -4 1 0 0 -4 1 0 0 -4 1 0 0 -4 1 0 0 -4 1 0 0 -4 1 0 0 -4 1 0 0 -5 1 0 0 -4 1 0 0 -4 1 0 0 -4 1 0 0 -5 1 0 0 -4 1 0 0 -4 1 -1 0 -4 1 0 0 -4 1 0 0 -5 1 0 0 -4 1 -1 0 -4 1 0 0 -5 1 0 0 -4 1 0"/>
<path stroke="red" d="M445 510l0 -5 1 0 0 -5 1 0 0 -4 1 0 0 -5 1 0 0 -5 1 0 0 -5 1 0 0 -4 1 0 0 -5 1 0 0 -5 1 0 0 -5 1 0 0 -5 1 0 0 -5 1 0 0 -5 1 0 0 -5 1 0 0 -5 1 0 0 -4 1 -1 0 -5 1 0 0 -4 1 -1 0 -4 1 0 0 -5 1 -1 0 -4 1 0 0 -5 1 -1 0 -4 1 0"/>
<path stroke="red" d="M468 398l0 -5 1 -1 0 -4 1 -1 0 -5 1 0 0 -5 1 0 0 -4 1 -1 0 -5 1 0 0 -5 1 0 0 -5 1 0 0 -5 1 0 0 -4 1 -1 0 -4 1 0 0 -5 1 0 0 -5 1 0 0 -5 1 0 0 -5 1 0 0 -5 1 0 0 -5 1 0 0 -5 1 0 0 -5 1 0 0 -5 1 0 0 -5 1 0 0 -4 1 0 0 -5 1 0"/>
<path stroke="red" d="M491 284l0 -5 1 0 0 -5 1 0 0 -4 1 0 0 -5 1 0 0 -5 1 0 0 -4 1 0 0 -5 1 0 0 -4 1 -1 0 -4 1 0 0 -5 1 0 0 -4 1 0 0 -5 1 0 0 -4 1 0 0 -4 1 0 0 -5 1 0 0 -4 1 0 0 -4 1 0 0 -4 1 0 0 -5 1 0 0 -4 1 0 0 -4 1 0 0 -4 1 0 0 -4 1 0 0 -4"/>
<path stroke="red" d="M514 178l1 0 0 -4 1 0 0 -4 1 0 0 -3 1 -1 0 -3 1 0 0 -4 1 0 0 -4 1 0 0 -3 1 0 0 -4 1 0 0 -3 1 0 0 -4 1 0 0 -3 1 0 0 -4 1 0 0 -3 1 0 0 -3 1 0 0 -3 1 0 0 -3 1 0 0 -3 1 -1 0 -3 1 0 0 -2 1 -1 0 -2 1 0 0 -3 1 0 0 -3 1 0 0 -3 1 0"/>
<path stroke="red" d="M538 101l0 -2 1 0 0 -3 1 0 0 -2 1 0 0 -3 1 0 0 -2 1 0 0 -2 1 0 0 -3 1 0 0 -2 1 0 0 -2 1 0 0 -2 1 0 0 -2 1 0 0 -2 1 0 0 -2 1 0 0 -2 1 0 0 -1 1 0 0 -2 1 0 0 -1 1 0 0 -2 1 0 0 -1 1 0 0 -2 1 0 0 -1 1 0 0 -1 1 0 0 -1 1 0 0 -1"/>
<path stroke="red" d="M561 57l1 0 0 -1 1 0 0 -1 1 0 0 -1 1 0 0 -1 2 0 0 -1 2 0 0 -1 2 0 0 -1 8 0M579 51l0 -1M579 51l2 0M581 52l0 -1M581 52l2 0M583 53l0 -1M583 53l2 0M585 54l0 -1M585 54l1 0M586 55l0 -1M586 55l1 0M587 56l0 -1M587 56l1 0M588 57l0 -1"/>
<path stroke="red" d="M588 57l1 0M589 58l0 -1M589 58l1 0M590 59l0 -1M590 59l1 0M591 60l0 -1M591 60l1 0M592 61l0 -1M592 61l1 0M593 63l0 -2M593 63l1 0M594 64l0 -1M594 64l1 0M595 66l0 -2M595 66l1 0M596 67l0 -1M596 67l1 0M597 69l0 -2M597 69l1 0M598 70l0 -1"/>
<path stroke="red" d="M598 70l1 0M599 72l0 -2M599 72l1 0M600 74l0 -2M600 74l1 0M601 76l0 -2M601 76l1 0M602 78l0 -2M602 78l1 0M603 80l0 -2M603 80l1 0M604 82l0 -2M604 82l1 0M605 84l0 -2M605 84l1 0M606 87l0 -3M606 87l1 0M607 89l0 -2M607 89l1 0M608 91l0 -2"/>
<path stroke="red" d="M608 91l1 0M609 94l0 -3M609 94l1 0M610 96l0 -2M610 96l1 0M611 99l0 -3M611 99l1 0M612 101l0 -2M612 101l1 0M613 104l0 -3M613 104l1 0M614 107l0 -3M614 107l1 0M615 110l0 -3M615 110l1 0M616 113l0 -3M616 113l1 0M617 115l0 -2M617 115l1 0"/>
<path stroke="red" d="M618 118l0 -3M618 118l1 0M619 122l0 -4M619 122l1 0M620 125l0 -3M620 125l1 0M621 128l0 -3M621 128l1 0M622 131l0 -3M622 131l1 0M623 134l0 -3M623 134l1 0M624 138l0 -4M624 138l1 0M625 141l0 -3M625 141l1 0M626 145l0 -4M626 145l1 0"/>
<path stroke="red" d="M627 148l0 -3M627 148l1 0M628 152l0 -4M628 152l1 0M629 155l0 -3M629 155l1 0M630 159l0 -4M630 159l1 0M631 163l0 -4M631 163l1 0M632 166l0 -3M632 166l1 1M633 170l0 -3M633 170l1 0M634 174l0 -4M634 174l1 0M635 178l0 -4M635 178l1 0"/>
<path stroke="red" d="M636 182l0 -4M636 182l1 0M637 186l0 -4M637 186l1 0M638 190l0 -4M638 190l1 0M639 194l0 -4M639 194l1 0M640 198l0 -4M640 198l1 0M641 203l0 -5M641 203l1 0M642 207l0 -4M642 207l1 0M643 211l0 -4M643 211l1 0M644 215l0 -4M644 215l1 0"/>
<path stroke="red" d="M645 220l0 -5M645 220l1 0M646 224l0 -4M646 224l1 0M647 228l0 -4M647 228l1 1M648 233l0 -4M648 233l1 0M649 237l0 -4M649 237l1 0M650 242l0 -5M650 242l1 0M651 246l0 -4M651 246l1 1M652 251l0 -4M652 251l1 0M653 256l0 -5M653 256l1 0"/>
<path stroke="red" d="M654 260l0 -4M654 260l1 0M655 265l0 -5M655 265l1 0M656 270l0 -5M656 270l1 0M657 274l0 -4M657 274l1 0M658 279l0 -5M658 279l1 0M659 284l0 -5M659 284l1 0M660 289l0 -5M660 289l1 0M661 293l0 -4M661 293l1 0M662 298l0 -5M662 298l1 0"/>
<path stroke="red" d="M663 303l0 -5M663 303l1 0M664 308l0 -5M664 308l1 0M665 313l0 -5M665 313l1 0M666 318l0 -5M666 318l1 0M667 323l0 -5M667 323l1 0M668 328l0 -5M668 328l1 0M669 333l0 -5M669 333l1 0M670 337l0 -4M670 337l1 1M671 343l0 -5M671 343l1 0"/>
<path stroke="red" d="M672 347l0 -4M672 347l1 1M673 352l0 -4M673 352l1 0M674 357l0 -5M674 357l1 1M675 362l0 -4M675 362l1 0M676 367l0 -5M676 367l1 1M677 372l0 -4M677 372l1 0M678 377l0 -5M678 377l1 1M679 382l0 -4M679 382l1 1M680 388l0 -5M680 388l1 0"/>
<path stroke="red" d="M681 392l0 -4M681 392l1 1M682 397l0 -4M682 397l1 1M683 403l0 -5M683 403l1 0M684 408l0 -5M684 408l1 0M685 413l0 -5M685 413l1 0M686 418l0 -5M686 418l1 0M687 422l0 -4M687 422l1 1M688 427l0 -4M688 427l1 0M689 432l0 -5M689 432l1 0"/>
<path stroke="red" d="M690 437l0 -5M690 437l1 0M691 442l0 -5M691 442l1 0M692 447l0 -5M692 447l1 0M693 452l0 -5M693 452l1 0M694 457l0 -5M694 457l1 0M695 462l0 -5M695 462l1 0M696 467l0 -5M696 467l1 0M697 472l0 -5M697 472l1 0M698 477l0 -5M698 477l1 0"/>
<path stroke="red" d="M699 481l0 -4M699 481l1 0M700 486l0 -5M700 486l1 0M701 491l0 -5M701 491l1 0M702 496l0 -5M702 496l1 0M703 500l0 -4M703 500l1 0M704 505l0 -5M704 505l1 0M705 510l0 -5M705 510l1 0M706 514l0 -4M706 514l1 0M707 519l0 -5M707 519l1 0"/>
<path stroke="red" d="M708 523l0 -4M708 523l1 1M709 528l0 -4M709 528l1 0M710 533l0 -5M710 533l1 0M711 537l0 -4M711 537l1 0M712 542l0 -5M712 542l1 0M713 546l0 -4M713 546l1 0M714 550l0 -4M714 550l1 0M715 555l0 -5M715 555l1 0M716 559l0 -4M716 559l1 0"/>
<path stroke="red" d="M717 563l0 -4M717 563l1 0M718 567l0 -4M718 567l1 0M719 572l0 -5M719 572l1 0M720 576l0 -4M720 576l1 0M721 580l0 -4M721 580l1 0M722 584l0 -4M722 584l1 0M723 588l0 -4M723 588l1 0M724 592l0 -4M724 592l1 0M725 596l0 -4M725 596l1 0"/>
<path stroke="red" d="M726 600l0 -4M726 600l1 0M727 603l0 -3M727 603l1 1M728 607l0 -3M728 607l1 0M729 611l0 -4M729 611l1 0M730 615l0 -4M730 615l1 0M731 618l0 -3M731 618l1 0M732 622l0 -4M732 622l1 0M733 625l0 -3M733 625l1 0M734 629l0 -4M734 629l1 0"/>
<path stroke="red" d="M735 632l0 -3M735 632l1 0M736 636l0 -4M736 636l1 0M737 639l0 -3M737 639l1 0M738 642l0 -3M738 642l1 0M739 645l0 -3M739 645l1 0M740 648l0 -3M740 648l1 0M741 651l0 -3M741 651l1 1M742 655l0 -3M742 655l1 0M743 657l0 -2M743 657l1 1"/>
<path stroke="red" d="M744 660l0 -2M744 660l1 0M745 663l0 -3M745 663l1 0M746 666l0 -3M746 666l1 0M747 669l0 -3M747 669l1 0M748 671l0 -2M748 671l1 0M749 674l0 -3M749 674l1 0M750 676l0 -2M750 676l1 0M751 679l0 -3M751 679l1 0M752 681l0 -2M752 681l1 0"/>
<path stroke="red" d="M753 683l0 -2M753 683l1 0M754 686l0 -3M754 686l1 0M755 688l0 -2M755 688l1 0M756 690l0 -2M756 690l1 0M757 692l0 -2M757 692l1 0M758 694l0 -2M758 694l1 0M759 696l0 -2M759 696l1 0M760 698l0 -2M760 698l1 0M761 700l0 -2M761 700l1 0"/>
<path stroke="red" d="M762 701l0 -1M762 701l1 0M763 703l0 -2M763 703l1 0M764 704l0 -1M764 704l1 0M765 706l0 -2M765 706l1 0M766 707l0 -1M766 707l1 0M767 709l0 -2M767 709l1 0M768 710l0 -1M768 710l1 0M769 711l0 -1M769 711l1 0M770 712l0 -1M770 712l1 0"/>
<path stroke="red" d="M771 713l0 -1M771 713l1 0M772 714l0 -1M772 714l1 0M773 715l0 -1M773 715l1 0M774 716l0 -1M774 716l1 0M775 717l0 -1M775 717l2 0M777 718l0 -1M777 718l2 0M779 719l0 -1M779 719l2 0M781 720l0 -1M781 720l8 0 0 -1 2 0 0 -1 2 0 0 -1"/>
<path stroke="red" d="M793 717l2 0 0 -1 1 0 0 -1 1 0 0 -1 1 0 0 -1 1 0 0 -1 1 0 0 -1 1 0 0 -1 1 0 0 -1 1 0 0 -2 1 0 0 -1 1 0 0 -2 1 0 0 -1 1 0 0 -2 1 0 0 -1 1 0 0 -2 1 0 0 -2 1 0 0 -2 1 0 0 -2 1 0 0 -2 1 0 0 -2 1 0 0 -2 1 0 0 -3 1 0 0 -2 1 0"/>
<path stroke="red" d="M818 681l0 -2 1 0 0 -3 1 0 0 -2 1 0 0 -3 1 0 0 -2 1 0 0 -3 1 0 0 -3 1 0 0 -3 1 0 0 -3 1 0 0 -2 1 0 0 -3 1 0 0 -4 1 0 0 -3 1 0 0 -3 1 0 0 -3 1 0 0 -3 1 0 0 -4 1 0 0 -3 1 0 0 -4 1 0 0 -3 1 0 0 -4 1 0 0 -3 1 0 0 -4 1 0 0 -4"/>
<path stroke="red" d="M841 607l1 0 0 -3 1 -1 0 -3 1 0 0 -4 1 0 0 -4 1 0 0 -4 1 0 0 -4 1 0 0 -4 1 0 0 -4 1 0 0 -4 1 0 0 -5 1 0 0 -4 1 0 0 -4 1 0 0 -4 1 0 0 -5 1 0 0 -4 1 0 0 -4 1 -1 0 -4 1 0 0 -4 1 0 0 -5 1 0 0 -4 1 -1 0 -4 1 0 0 -5 1 0 0 -4 1 0"/>
<path stroke="red" d="M865 510l0 -5 1 0 0 -5 1 0 0 -4 1 0 0 -5 1 0 0 -5 1 0 0 -5 1 0 0 -4 1 0 0 -5 1 0 0 -5 1 0 0 -5 1 0 0 -5 1 0 0 -5 1 0 0 -5 1 0 0 -5 1 0 0 -5 1 0 0 -4 1 -1 0 -5 1 0 0 -4 1 -1 0 -4 1 0 0 -5 1 -1 0 -4 1 0 0 -5 1 -1 0 -4 1 0"/>
<path stroke="red" d="M888 398l0 -5 1 -1 0 -4 1 -1 0 -5 1 0 0 -5 1 0 0 -4 1 -1 0 -5 1 0 0 -5 1 0 0 -5 1 0 0 -5 1 0 0 -4 1 -1 0 -4 1 0 0 -5 1 0 0 -5 1 0 0 -5 1 0 0 -5 1 0 0 -5 1 0 0 -5 1 0 0 -5 1 0 0 -5 1 0 0 -5 1 0 0 -5 1 0 0 -4 1 0 0 -5 1 0"/>
<path stroke="red" d="M911 284l0 -3"/>
<path stroke="blue" d="M50 23l46 0"/>
<text stroke="none" fill="white" font-size="16" x="106" y="32">
vdig_plt
</text>
<path stroke="blue" d="M71 720l0 -383 22 0 0 -96 14 0 0 -95 7 0 0 -96 83 0M197 146l0 -96M197 146l7 0M204 241l0 -95M204 241l14 0M218 337l0 -96M218 337l40 0M258 433l0 -96M258 433l45 0M303 529l0 -96M303 529l14 0M317 624l0 -95M317 624l7 0M324 720l0 -96"/>
<path stroke="blue" d="M324 720l83 0 0 -96 7 0 0 -95 14 0 0 -96 45 0 0 -96 40 0 0 -96 14 0 0 -95 7 0 0 -96 83 0M617 146l0 -96M617 146l7 0M624 241l0 -95M624 241l14 0M638 337l0 -96M638 337l40 0M678 433l0 -96M678 433l45 0M723 529l0 -96M723 529l14 0"/>
<path stroke="blue" d="M737 624l0 -95M737 624l7 0M744 720l0 -96M744 720l83 0 0 -96 7 0 0 -95 14 0 0 -96 45 0 0 -96 18 0"/>
</svg>
