<?xml version="1.0" standalone="yes"?>
<!DOCTYPE svg PUBLIC "-//W3C//DTD SVG 1.1//EN"
 "http://www.w3.org/Graphics/SVG/1.1/DTD/svg11.dtd">
<svg xmlns="http://www.w3.org/2000/svg" version="1.1"
  width="100%" height="100%" viewBox="0 0 1024 768"
  style="fill: none; font-family: Helvetica;
 font: Helvetica;
">

<!-- Creator: NGspice -->

<rect x="0" y="0" width="1024" height="768" fill="black" stroke="none"/>
<text stroke="none" fill="white" font-size="16" x="358" y="752">
time
</text>
<text stroke="none" fill="white" font-size="16" x="10" y="16">
tran1: ** sch_path: /foss/designs/xschem/adc-pipe-3b-top_tb-sweep.sch
</text>
<path stroke="white" d="M50 720l0 -672"/>
<text stroke="none" fill="white" font-size="16" x="35" y="728">
0.0
</text>
<path stroke="white" stroke-dasharray="1,2" d="M134 720l0 -672"/>
<text stroke="none" fill="white" font-size="16" x="119" y="728">
1.0
</text>
<path stroke="white" stroke-dasharray="1,2" d="M218 720l0 -672"/>
<text stroke="none" fill="white" font-size="16" x="203" y="728">
2.0
</text>
<path stroke="white" stroke-dasharray="1,2" d="M302 720l0 -672"/>
<text stroke="none" fill="white" font-size="16" x="287" y="728">
3.0
</text>
<path stroke="white" stroke-dasharray="1,2" d="M386 720l0 -672"/>
<text stroke="none" fill="white" font-size="16" x="371" y="728">
4.0
</text>
<path stroke="white" stroke-dasharray="1,2" d="M470 720l0 -672"/>
<text stroke="none" fill="white" font-size="16" x="455" y="728">
5.0
</text>
<path stroke="white" stroke-dasharray="1,2" d="M554 720l0 -672"/>
<text stroke="none" fill="white" font-size="16" x="539" y="728">
6.0
</text>
<path stroke="white" stroke-dasharray="1,2" d="M638 720l0 -672"/>
<text stroke="none" fill="white" font-size="16" x="623" y="728">
7.0
</text>
<path stroke="white" stroke-dasharray="1,2" d="M722 720l0 -672"/>
<text stroke="none" fill="white" font-size="16" x="707" y="728">
8.0
</text>
<path stroke="white" stroke-dasharray="1,2" d="M806 720l0 -672"/>
<text stroke="none" fill="white" font-size="16" x="791" y="728">
9.0
</text>
<path stroke="white" stroke-dasharray="1,2" d="M890 720l0 -672"/>
<text stroke="none" fill="white" font-size="16" x="870" y="728">
10.0
</text>
<path stroke="white" stroke-dasharray="1,2" d="M974 720l0 -672"/>
<text stroke="none" fill="white" font-size="16" x="954" y="728">
11.0
</text>
<text stroke="none" fill="white" font-size="16" x="614" y="752">
ms
</text>
<path stroke="white" stroke-dasharray="1,2" d="M50 720l924 0"/>
<text stroke="none" fill="white" font-size="16" x="8" y="728">
-1.5
</text>
<path stroke="white" stroke-dasharray="1,2" d="M50 608l924 0"/>
<text stroke="none" fill="white" font-size="16" x="8" y="616">
-1.0
</text>
<path stroke="white" stroke-dasharray="1,2" d="M50 496l924 0"/>
<text stroke="none" fill="white" font-size="16" x="8" y="504">
-0.5
</text>
<path stroke="white" d="M50 384l924 0"/>
<text stroke="none" fill="white" font-size="16" x="18" y="392">
0.0
</text>
<path stroke="white" stroke-dasharray="1,2" d="M50 272l924 0"/>
<text stroke="none" fill="white" font-size="16" x="18" y="280">
0.5
</text>
<path stroke="white" stroke-dasharray="1,2" d="M50 160l924 0"/>
<text stroke="none" fill="white" font-size="16" x="18" y="168">
1.0
</text>
<path stroke="white" stroke-dasharray="1,2" d="M50 48l924 0"/>
<text stroke="none" fill="white" font-size="16" x="18" y="56">
1.5
</text>
<text stroke="none" fill="white" font-size="16" x="10" y="32">
     
</text>
<path stroke="red" d="M462 23l46 0"/>
<text stroke="none" fill="white" font-size="16" x="518" y="32">
vid
</text>
<path stroke="red" d="M54 48l1 0M55 50l0 -2M55 50l1 0M56 52l0 -2M56 52l1 0M57 53l0 -1M57 53l1 0M58 55l0 -2M58 55l1 0M59 56l0 -1M59 56l1 0M60 58l0 -2M60 58l1 0M61 60l0 -2M61 60l1 0M62 61l0 -1M62 61l1 0M63 63l0 -2M63 63l1 0M64 64l0 -1M64 64l1 0"/>
<path stroke="red" d="M65 66l0 -2M65 66l1 0M66 68l0 -2M66 68l1 0M67 69l0 -1M67 69l1 0M68 71l0 -2M68 71l1 0M69 72l0 -1M69 72l1 0M70 74l0 -2M70 74l1 0M71 76l0 -2M71 76l1 0M72 77l0 -1M72 77l1 0M73 79l0 -2M73 79l1 0M74 80l0 -1M74 80l1 0M75 82l0 -2"/>
<path stroke="red" d="M75 82l1 0M76 84l0 -2M76 84l1 0M77 85l0 -1M77 85l1 0M78 87l0 -2M78 87l1 0M79 88l0 -1M79 88l1 0M80 90l0 -2M80 90l1 0M81 92l0 -2M81 92l1 0M82 93l0 -1M82 93l1 0M83 95l0 -2M83 95l1 0M84 96l0 -1M84 96l1 0M85 98l0 -2M85 98l1 0"/>
<path stroke="red" d="M86 100l0 -2M86 100l1 0M87 101l0 -1M87 101l1 0M88 103l0 -2M88 103l1 0M89 104l0 -1M89 104l1 0M90 106l0 -2M90 106l1 0M91 108l0 -2M91 108l1 0M92 109l0 -1M92 109l1 0M93 111l0 -2M93 111l1 0M94 112l0 -1M94 112l1 0M95 114l0 -2"/>
<path stroke="red" d="M95 114l1 0M96 116l0 -2M96 116l1 0M97 117l0 -1M97 117l1 0M98 119l0 -2M98 119l1 0M99 120l0 -1M99 120l1 0M100 122l0 -2M100 122l1 0M101 124l0 -2M101 124l1 0M102 125l0 -1M102 125l1 0M103 127l0 -2M103 127l1 0M104 128l0 -1M104 128l1 0"/>
<path stroke="red" d="M105 130l0 -2M105 130l1 0M106 132l0 -2M106 132l1 0M107 133l0 -1M107 133l1 0M108 135l0 -2M108 135l1 0M109 136l0 -1M109 136l1 0M110 138l0 -2M110 138l1 0M111 140l0 -2M111 140l1 0M112 141l0 -1M112 141l1 0M113 143l0 -2M113 143l1 0"/>
<path stroke="red" d="M114 144l0 -1M114 144l1 0M115 146l0 -2M115 146l1 0M116 148l0 -2M116 148l1 0M117 149l0 -1M117 149l1 0M118 151l0 -2M118 151l1 0M119 152l0 -1M119 152l1 0M120 154l0 -2M120 154l1 0M121 156l0 -2M121 156l1 0M122 157l0 -1M122 157l1 0"/>
<path stroke="red" d="M123 159l0 -2M123 159l1 0M124 160l0 -1M124 160l1 0M125 162l0 -2M125 162l1 0M126 164l0 -2M126 164l1 0M127 165l0 -1M127 165l1 0M128 167l0 -2M128 167l1 0M129 168l0 -1M129 168l1 0M130 170l0 -2M130 170l1 0M131 172l0 -2M131 172l1 0"/>
<path stroke="red" d="M132 173l0 -1M132 173l1 0M133 175l0 -2M133 175l1 0M134 176l0 -1M134 176l1 0M135 178l0 -2M135 178l1 0M136 180l0 -2M136 180l1 0M137 181l0 -1M137 181l1 0M138 183l0 -2M138 183l1 0M139 184l0 -1M139 184l1 0M140 186l0 -2M140 186l1 0"/>
<path stroke="red" d="M141 188l0 -2M141 188l1 0M142 189l0 -1M142 189l1 0M143 191l0 -2M143 191l1 0M144 192l0 -1M144 192l1 0M145 194l0 -2M145 194l1 0M146 196l0 -2M146 196l1 0M147 197l0 -1M147 197l1 0M148 199l0 -2M148 199l1 0M149 200l0 -1M149 200l1 0"/>
<path stroke="red" d="M150 202l0 -2M150 202l1 0M151 204l0 -2M151 204l1 0M152 205l0 -1M152 205l1 0M153 207l0 -2M153 207l1 0M154 208l0 -1M154 208l1 0M155 210l0 -2M155 210l1 0M156 212l0 -2M156 212l1 0M157 213l0 -1M157 213l1 0M158 215l0 -2M158 215l1 0"/>
<path stroke="red" d="M159 216l0 -1M159 216l1 0M160 218l0 -2M160 218l1 0M161 220l0 -2M161 220l1 0M162 221l0 -1M162 221l1 0M163 223l0 -2M163 223l1 0M164 224l0 -1M164 224l1 0M165 226l0 -2M165 226l1 0M166 228l0 -2M166 228l1 0M167 229l0 -1M167 229l1 0"/>
<path stroke="red" d="M168 231l0 -2M168 231l1 0M169 232l0 -1M169 232l1 0M170 234l0 -2M170 234l1 0M171 236l0 -2M171 236l1 0M172 237l0 -1M172 237l1 0M173 239l0 -2M173 239l1 0M174 240l0 -1M174 240l1 0M175 242l0 -2M175 242l1 0M176 244l0 -2M176 244l1 0"/>
<path stroke="red" d="M177 245l0 -1M177 245l1 0M178 247l0 -2M178 247l1 0M179 248l0 -1M179 248l1 0M180 250l0 -2M180 250l1 0M181 252l0 -2M181 252l1 0M182 253l0 -1M182 253l1 0M183 255l0 -2M183 255l1 0M184 256l0 -1M184 256l1 0M185 258l0 -2M185 258l1 0"/>
<path stroke="red" d="M186 260l0 -2M186 260l1 0M187 261l0 -1M187 261l1 0M188 263l0 -2M188 263l1 0M189 264l0 -1M189 264l1 0M190 266l0 -2M190 266l1 0M191 268l0 -2M191 268l1 0M192 269l0 -1M192 269l1 0M193 271l0 -2M193 271l1 0M194 272l0 -1M194 272l1 0"/>
<path stroke="red" d="M195 274l0 -2M195 274l1 0M196 276l0 -2M196 276l1 0M197 277l0 -1M197 277l1 0M198 279l0 -2M198 279l1 0M199 280l0 -1M199 280l1 0M200 282l0 -2M200 282l1 0M201 284l0 -2M201 284l1 0M202 285l0 -1M202 285l1 0M203 287l0 -2M203 287l1 0"/>
<path stroke="red" d="M204 288l0 -1M204 288l1 0M205 290l0 -2M205 290l1 0M206 292l0 -2M206 292l1 0M207 293l0 -1M207 293l1 0M208 295l0 -2M208 295l1 0M209 296l0 -1M209 296l1 0M210 298l0 -2M210 298l1 0M211 300l0 -2M211 300l1 0M212 301l0 -1M212 301l1 0"/>
<path stroke="red" d="M213 303l0 -2M213 303l1 0M214 304l0 -1M214 304l1 0M215 306l0 -2M215 306l1 0M216 308l0 -2M216 308l1 0M217 309l0 -1M217 309l1 0M218 311l0 -2M218 311l1 0M219 312l0 -1M219 312l1 0M220 314l0 -2M220 314l1 0M221 316l0 -2M221 316l1 0"/>
<path stroke="red" d="M222 317l0 -1M222 317l1 0M223 319l0 -2M223 319l1 0M224 320l0 -1M224 320l1 0M225 322l0 -2M225 322l1 0M226 324l0 -2M226 324l1 0M227 325l0 -1M227 325l1 0M228 327l0 -2M228 327l1 0M229 328l0 -1M229 328l1 0M230 330l0 -2M230 330l1 0"/>
<path stroke="red" d="M231 332l0 -2M231 332l1 0M232 333l0 -1M232 333l1 0M233 335l0 -2M233 335l1 0M234 336l0 -1M234 336l1 0M235 338l0 -2M235 338l1 0M236 340l0 -2M236 340l1 0M237 341l0 -1M237 341l1 0M238 343l0 -2M238 343l1 0M239 344l0 -1M239 344l1 0"/>
<path stroke="red" d="M240 346l0 -2M240 346l1 0M241 348l0 -2M241 348l1 0M242 349l0 -1M242 349l1 0M243 351l0 -2M243 351l1 0M244 352l0 -1M244 352l1 0M245 354l0 -2M245 354l1 0M246 356l0 -2M246 356l1 0M247 357l0 -1M247 357l1 0M248 359l0 -2M248 359l1 0"/>
<path stroke="red" d="M249 360l0 -1M249 360l1 0M250 362l0 -2M250 362l1 0M251 364l0 -2M251 364l1 0M252 365l0 -1M252 365l1 0M253 367l0 -2M253 367l1 0M254 368l0 -1M254 368l1 0M255 370l0 -2M255 370l1 0M256 372l0 -2M256 372l1 0M257 373l0 -1M257 373l1 0"/>
<path stroke="red" d="M258 375l0 -2M258 375l1 0M259 376l0 -1M259 376l1 0M260 378l0 -2M260 378l1 0M261 380l0 -2M261 380l1 0M262 381l0 -1M262 381l1 0M263 383l0 -2M263 383l1 0M264 384l0 -1M264 384l1 0M265 386l0 -2M265 386l1 0M266 388l0 -2M266 388l1 0"/>
<path stroke="red" d="M267 389l0 -1M267 389l1 0M268 391l0 -2M268 391l1 0M269 392l0 -1M269 392l1 0M270 394l0 -2M270 394l1 0M271 396l0 -2M271 396l1 0M272 397l0 -1M272 397l1 0M273 399l0 -2M273 399l1 0M274 400l0 -1M274 400l1 0M275 402l0 -2M275 402l1 0"/>
<path stroke="red" d="M276 404l0 -2M276 404l1 0M277 405l0 -1M277 405l1 0M278 407l0 -2M278 407l1 0M279 408l0 -1M279 408l1 0M280 410l0 -2M280 410l1 0M281 412l0 -2M281 412l1 0M282 413l0 -1M282 413l1 0M283 415l0 -2M283 415l1 0M284 416l0 -1M284 416l1 0"/>
<path stroke="red" d="M285 418l0 -2M285 418l1 0M286 420l0 -2M286 420l1 0M287 421l0 -1M287 421l1 0M288 423l0 -2M288 423l1 0M289 424l0 -1M289 424l1 0M290 426l0 -2M290 426l1 0M291 428l0 -2M291 428l1 0M292 429l0 -1M292 429l1 0M293 431l0 -2M293 431l1 0"/>
<path stroke="red" d="M294 432l0 -1M294 432l1 0M295 434l0 -2M295 434l1 0M296 436l0 -2M296 436l1 0M297 437l0 -1M297 437l1 0M298 439l0 -2M298 439l1 0M299 440l0 -1M299 440l1 0M300 442l0 -2M300 442l1 0M301 444l0 -2M301 444l1 0M302 445l0 -1M302 445l1 0"/>
<path stroke="red" d="M303 447l0 -2M303 447l1 0M304 448l0 -1M304 448l1 0M305 450l0 -2M305 450l1 0M306 452l0 -2M306 452l1 0M307 453l0 -1M307 453l1 0M308 455l0 -2M308 455l1 0M309 456l0 -1M309 456l1 0M310 458l0 -2M310 458l1 0M311 460l0 -2M311 460l1 0"/>
<path stroke="red" d="M312 461l0 -1M312 461l1 0M313 463l0 -2M313 463l1 0M314 464l0 -1M314 464l1 0M315 466l0 -2M315 466l1 0M316 468l0 -2M316 468l1 0M317 469l0 -1M317 469l1 0M318 471l0 -2M318 471l1 0M319 472l0 -1M319 472l1 0M320 474l0 -2M320 474l1 0"/>
<path stroke="red" d="M321 476l0 -2M321 476l1 0M322 477l0 -1M322 477l1 0M323 479l0 -2M323 479l1 0M324 480l0 -1M324 480l1 0M325 482l0 -2M325 482l1 0M326 484l0 -2M326 484l1 0M327 485l0 -1M327 485l1 0M328 487l0 -2M328 487l1 0M329 488l0 -1M329 488l1 0"/>
<path stroke="red" d="M330 490l0 -2M330 490l1 0M331 492l0 -2M331 492l1 0M332 493l0 -1M332 493l1 0M333 495l0 -2M333 495l1 0M334 496l0 -1M334 496l1 0M335 498l0 -2M335 498l1 0M336 500l0 -2M336 500l1 0M337 501l0 -1M337 501l1 0M338 503l0 -2M338 503l1 0"/>
<path stroke="red" d="M339 504l0 -1M339 504l1 0M340 506l0 -2M340 506l1 0M341 508l0 -2M341 508l1 0M342 509l0 -1M342 509l1 0M343 511l0 -2M343 511l1 0M344 512l0 -1M344 512l1 0M345 514l0 -2M345 514l1 0M346 516l0 -2M346 516l1 0M347 517l0 -1M347 517l1 0"/>
<path stroke="red" d="M348 519l0 -2M348 519l1 0M349 520l0 -1M349 520l1 0M350 522l0 -2M350 522l1 0M351 524l0 -2M351 524l1 0M352 525l0 -1M352 525l1 0M353 527l0 -2M353 527l1 0M354 528l0 -1M354 528l1 0M355 530l0 -2M355 530l1 0M356 532l0 -2M356 532l1 0"/>
<path stroke="red" d="M357 533l0 -1M357 533l1 0M358 535l0 -2M358 535l1 0M359 536l0 -1M359 536l1 0M360 538l0 -2M360 538l1 0M361 540l0 -2M361 540l1 0M362 541l0 -1M362 541l1 0M363 543l0 -2M363 543l1 0M364 544l0 -1M364 544l1 0M365 546l0 -2M365 546l1 0"/>
<path stroke="red" d="M366 548l0 -2M366 548l1 0M367 549l0 -1M367 549l1 0M368 551l0 -2M368 551l1 0M369 552l0 -1M369 552l1 0M370 554l0 -2M370 554l1 0M371 556l0 -2M371 556l1 0M372 557l0 -1M372 557l1 0M373 559l0 -2M373 559l1 0M374 560l0 -1M374 560l1 0"/>
<path stroke="red" d="M375 562l0 -2M375 562l1 0M376 564l0 -2M376 564l1 0M377 565l0 -1M377 565l1 0M378 567l0 -2M378 567l1 0M379 568l0 -1M379 568l1 0M380 570l0 -2M380 570l1 0M381 572l0 -2M381 572l1 0M382 573l0 -1M382 573l1 0M383 575l0 -2M383 575l1 0"/>
<path stroke="red" d="M384 576l0 -1M384 576l1 0M385 578l0 -2M385 578l1 0M386 580l0 -2M386 580l1 0M387 581l0 -1M387 581l1 0M388 583l0 -2M388 583l1 0M389 584l0 -1M389 584l1 0M390 586l0 -2M390 586l1 0M391 588l0 -2M391 588l1 0M392 589l0 -1M392 589l1 0"/>
<path stroke="red" d="M393 591l0 -2M393 591l1 0M394 592l0 -1M394 592l1 0M395 594l0 -2M395 594l1 0M396 596l0 -2M396 596l1 0M397 597l0 -1M397 597l1 0M398 599l0 -2M398 599l1 0M399 600l0 -1M399 600l1 0M400 602l0 -2M400 602l1 0M401 604l0 -2M401 604l1 0"/>
<path stroke="red" d="M402 605l0 -1M402 605l1 0M403 607l0 -2M403 607l1 0M404 608l0 -1M404 608l1 0M405 610l0 -2M405 610l1 0M406 612l0 -2M406 612l1 0M407 613l0 -1M407 613l1 0M408 615l0 -2M408 615l1 0M409 616l0 -1M409 616l1 0M410 618l0 -2M410 618l1 0"/>
<path stroke="red" d="M411 620l0 -2M411 620l1 0M412 621l0 -1M412 621l1 0M413 623l0 -2M413 623l1 0M414 624l0 -1M414 624l1 0M415 626l0 -2M415 626l1 0M416 628l0 -2M416 628l1 0M417 629l0 -1M417 629l1 0M418 631l0 -2M418 631l1 0M419 632l0 -1M419 632l1 0"/>
<path stroke="red" d="M420 634l0 -2M420 634l1 0M421 636l0 -2M421 636l1 0M422 637l0 -1M422 637l1 0M423 639l0 -2M423 639l1 0M424 640l0 -1M424 640l1 0M425 642l0 -2M425 642l1 0M426 644l0 -2M426 644l1 0M427 645l0 -1M427 645l1 0M428 647l0 -2M428 647l1 0"/>
<path stroke="red" d="M429 648l0 -1M429 648l1 0M430 650l0 -2M430 650l1 0M431 652l0 -2M431 652l1 0M432 653l0 -1M432 653l1 0M433 655l0 -2M433 655l1 0M434 656l0 -1M434 656l1 0M435 658l0 -2M435 658l1 0M436 660l0 -2M436 660l1 0M437 661l0 -1M437 661l1 0"/>
<path stroke="red" d="M438 663l0 -2M438 663l1 0M439 664l0 -1M439 664l1 0M440 666l0 -2M440 666l1 0M441 668l0 -2M441 668l1 0M442 669l0 -1M442 669l1 0M443 671l0 -2M443 671l1 0M444 672l0 -1M444 672l1 0M445 674l0 -2M445 674l1 0M446 676l0 -2M446 676l1 0"/>
<path stroke="red" d="M447 677l0 -1M447 677l1 0M448 679l0 -2M448 679l1 0M449 680l0 -1M449 680l1 0M450 682l0 -2M450 682l1 0M451 684l0 -2M451 684l1 0M452 685l0 -1M452 685l1 0M453 687l0 -2M453 687l1 0M454 688l0 -1M454 688l1 0M455 690l0 -2M455 690l1 0"/>
<path stroke="red" d="M456 692l0 -2M456 692l1 0M457 693l0 -1M457 693l1 0M458 695l0 -2M458 695l1 0M459 696l0 -1M459 696l1 0M460 698l0 -2M460 698l1 0M461 700l0 -2M461 700l1 0M462 701l0 -1M462 701l1 0M463 703l0 -2M463 703l1 0M464 704l0 -1M464 704l1 0"/>
<path stroke="red" d="M465 706l0 -2M465 706l1 0M466 708l0 -2M466 708l1 0M467 709l0 -1M467 709l1 0M468 711l0 -2M468 711l1 0M469 712l0 -1M469 712l1 0M470 714l0 -2M470 714l1 0M471 716l0 -2M471 716l1 0M472 717l0 -1M472 717l1 0M473 719l0 -2M473 719l1 0"/>
<path stroke="red" d="M474 720l0 -1M474 720l1 0 0 -1 1 0 0 -1 1 0 0 -2 1 0 0 -2 1 0 0 -1 1 0 0 -2 1 0 0 -1 1 0 0 -2 1 0 0 -2 1 0 0 -1 1 0 0 -2 1 0 0 -1 1 0 0 -2 1 0 0 -2 1 0 0 -1 1 0 0 -2 1 0 0 -1 1 0 0 -2 1 0 0 -2 1 0 0 -1 1 0 0 -2 1 0 0 -1"/>
<path stroke="red" d="M496 686l1 0 0 -2 1 0 0 -2 1 0 0 -1 1 0 0 -2 1 0 0 -1 1 0 0 -2 1 0 0 -2 1 0 0 -1 1 0 0 -2 1 0 0 -1 1 0 0 -2 1 0 0 -2 1 0 0 -1 1 0 0 -2 1 0 0 -1 1 0 0 -2 1 0 0 -2 1 0 0 -1 1 0 0 -2 1 0 0 -1 1 0 0 -2 1 0 0 -2 1 0 0 -1 1 0"/>
<path stroke="red" d="M520 649l0 -2 1 0 0 -1 1 0 0 -2 1 0 0 -2 1 0 0 -1 1 0 0 -2 1 0 0 -1 1 0 0 -2 1 0 0 -2 1 0 0 -1 1 0 0 -2 1 0 0 -1 1 0 0 -2 1 0 0 -2 1 0 0 -1 1 0 0 -2 1 0 0 -1 1 0 0 -2 1 0 0 -2 1 0 0 -1 1 0 0 -2 1 0 0 -1 1 0 0 -2 1 0 0 -2"/>
<path stroke="red" d="M543 610l1 0 0 -1 1 0 0 -2 1 0 0 -1 1 0 0 -2 1 0 0 -2 1 0 0 -1 1 0 0 -2 1 0 0 -1 1 0 0 -2 1 0 0 -2 1 0 0 -1 1 0 0 -2 1 0 0 -1 1 0 0 -2 1 0 0 -2 1 0 0 -1 1 0 0 -2 1 0 0 -1 1 0 0 -2 1 0 0 -2 1 0 0 -1 1 0 0 -2 1 0 0 -1 1 0"/>
<path stroke="red" d="M567 574l0 -2 1 0 0 -2 1 0 0 -1 1 0 0 -2 1 0 0 -1 1 0 0 -2 1 0 0 -2 1 0 0 -1 1 0 0 -2 1 0 0 -1 1 0 0 -2 1 0 0 -2 1 0 0 -1 1 0 0 -2 1 0 0 -1 1 0 0 -2 1 0 0 -2 1 0 0 -1 1 0 0 -2 1 0 0 -1 1 0 0 -2 1 0 0 -2 1 0 0 -1 1 0 0 -2"/>
<path stroke="red" d="M590 535l1 0 0 -1 1 0 0 -2 1 0 0 -2 1 0 0 -1 1 0 0 -2 1 0 0 -1 1 0 0 -2 1 0 0 -2 1 0 0 -1 1 0 0 -2 1 0 0 -1 1 0 0 -2 1 0 0 -2 1 0 0 -1 1 0 0 -2 1 0 0 -1 1 0 0 -2 1 0 0 -2 1 0 0 -1 1 0 0 -2 1 0 0 -1 1 0 0 -2 1 0 0 -2 1 0"/>
<path stroke="red" d="M614 498l0 -1 1 0 0 -2 1 0 0 -1 1 0 0 -2 1 0 0 -2 1 0 0 -1 1 0 0 -2 1 0 0 -1 1 0 0 -2 1 0 0 -2 1 0 0 -1 1 0 0 -2 1 0 0 -1 1 0 0 -2 1 0 0 -2 1 0 0 -1 1 0 0 -2 1 0 0 -1 1 0 0 -2 1 0 0 -2 1 0 0 -1 1 0 0 -2 1 0 0 -1 1 0 0 -2"/>
<path stroke="red" d="M637 460l1 0 0 -2 1 0 0 -1 1 0 0 -2 1 0 0 -1 1 0 0 -2 1 0 0 -2 1 0 0 -1 1 0 0 -2 1 0 0 -1 1 0 0 -2 1 0 0 -2 1 0 0 -1 1 0 0 -2 1 0 0 -1 1 0 0 -2 1 0 0 -2 1 0 0 -1 1 0 0 -2 1 0 0 -1 1 0 0 -2 1 0 0 -2 1 0 0 -1 1 0 0 -2 1 0"/>
<path stroke="red" d="M661 423l0 -1 1 0 0 -2 1 0 0 -2 1 0 0 -1 1 0 0 -2 1 0 0 -1 1 0 0 -2 1 0 0 -2 1 0 0 -1 1 0 0 -2 1 0 0 -1 1 0 0 -2 1 0 0 -2 1 0 0 -1 1 0 0 -2 1 0 0 -1 1 0 0 -2 1 0 0 -2 1 0 0 -1 1 0 0 -2 1 0 0 -1 1 0 0 -2 1 0 0 -2 1 0 0 -1"/>
<path stroke="red" d="M684 385l1 0 0 -2 1 0 0 -1 1 0 0 -2 1 0 0 -2 1 0 0 -1 1 0 0 -2 1 0 0 -1 1 0 0 -2 1 0 0 -2 1 0 0 -1 1 0 0 -2 1 0 0 -1 1 0 0 -2 1 0 0 -2 1 0 0 -1 1 0 0 -2 1 0 0 -1 1 0 0 -2 1 0 0 -2 1 0 0 -1 1 0 0 -2 1 0 0 -1 1 0 0 -2 1 0"/>
<path stroke="red" d="M708 348l0 -2 1 0 0 -1 1 0 0 -2 1 0 0 -1 1 0 0 -2 1 0 0 -2 1 0 0 -1 1 0 0 -2 1 0 0 -1 1 0 0 -2 1 0 0 -2 1 0 0 -1 1 0 0 -2 1 0 0 -1 1 0 0 -2 1 0 0 -2 1 0 0 -1 1 0 0 -2 1 0 0 -1 1 0 0 -2 1 0 0 -2 1 0 0 -1 1 0 0 -2 1 0 0 -1"/>
<path stroke="red" d="M731 310l1 0 0 -2 1 0 0 -2 1 0 0 -1 1 0 0 -2 1 0 0 -1 1 0 0 -2 1 0 0 -2 1 0 0 -1 1 0 0 -2 1 0 0 -1 1 0 0 -2 1 0 0 -2 1 0 0 -1 1 0 0 -2 1 0 0 -1 1 0 0 -2 1 0 0 -2 1 0 0 -1 1 0 0 -2 1 0 0 -1 1 0 0 -2 1 0 0 -2 1 0 0 -1 1 0"/>
<path stroke="red" d="M755 273l0 -2 1 0 0 -1 1 0 0 -2 1 0 0 -2 1 0 0 -1 1 0 0 -2 1 0 0 -1 1 0 0 -2 1 0 0 -2 1 0 0 -1 1 0 0 -2 1 0 0 -1 1 0 0 -2 1 0 0 -2 1 0 0 -1 1 0 0 -2 1 0 0 -1 1 0 0 -2 1 0 0 -2 1 0 0 -1 1 0 0 -2 1 0 0 -1 1 0 0 -2 1 0 0 -2"/>
<path stroke="red" d="M778 234l1 0 0 -1 1 0 0 -2 1 0 0 -1 1 0 0 -2 1 0 0 -2 1 0 0 -1 1 0 0 -2 1 0 0 -1 1 0 0 -2 1 0 0 -2 1 0 0 -1 1 0 0 -2 1 0 0 -1 1 0 0 -2 1 0 0 -2 1 0 0 -1 1 0 0 -2 1 0 0 -1 1 0 0 -2 1 0 0 -2 1 0 0 -1 1 0 0 -2 1 0 0 -1 1 0"/>
<path stroke="red" d="M802 198l0 -2 1 0 0 -2 1 0 0 -1 1 0 0 -2 1 0 0 -1 1 0 0 -2 1 0 0 -2 1 0 0 -1 1 0 0 -2 1 0 0 -1 1 0 0 -2 1 0 0 -2 1 0 0 -1 1 0 0 -2 1 0 0 -1 1 0 0 -2 1 0 0 -2 1 0 0 -1 1 0 0 -2 1 0 0 -1 1 0 0 -2 1 0 0 -2 1 0 0 -1 1 0 0 -2"/>
<path stroke="red" d="M825 159l1 0 0 -1 1 0 0 -2 1 0 0 -2 1 0 0 -1 1 0 0 -2 1 0 0 -1 1 0 0 -2 1 0 0 -2 1 0 0 -1 1 0 0 -2 1 0 0 -1 1 0 0 -2 1 0 0 -2 1 0 0 -1 1 0 0 -2 1 0 0 -1 1 0 0 -2 1 0 0 -2 1 0 0 -1 1 0 0 -2 1 0 0 -1 1 0 0 -2 1 0 0 -2 1 0"/>
<path stroke="red" d="M849 122l0 -1 1 0 0 -2 1 0 0 -1 1 0 0 -2 1 0 0 -2 1 0 0 -1 1 0 0 -2 1 0 0 -1 1 0 0 -2 1 0 0 -2 1 0 0 -1 1 0 0 -2 1 0 0 -1 1 0 0 -2 1 0 0 -2 1 0 0 -1 1 0 0 -2 1 0 0 -1 1 0 0 -2 1 0 0 -2 1 0 0 -1 1 0 0 -2 1 0 0 -1 1 0 0 -2"/>
<path stroke="red" d="M872 84l1 0 0 -2 1 0 0 -1 1 0 0 -2 1 0 0 -1 1 0 0 -2 1 0 0 -2 1 0 0 -1 1 0 0 -2 1 0 0 -1 1 0 0 -2 1 0 0 -2 1 0 0 -1 1 0 0 -2 1 0 0 -1 1 0 0 -2 1 0 0 -2 1 0 0 -1 1 0 0 -2 1 0 0 -1 1 0 0 -2 1 0 0 -2 1 0 0 -1"/>
<path stroke="blue" d="M50 23l46 0"/>
<text stroke="none" fill="white" font-size="16" x="106" y="32">
vdig_plt
</text>
<path stroke="blue" d="M54 608l0 -448 97 0M151 224l0 -64M151 224l8 0M159 288l0 -64M159 288l21 0M180 352l0 -64M180 352l80 0M260 416l0 -64M260 416l88 0M348 480l0 -64M348 480l21 0M369 544l0 -64M369 544l9 0M378 608l0 -64M378 608l194 0 0 -64 8 0 0 -64"/>
<path stroke="blue" d="M580 480l21 0 0 -64 89 0 0 -64 79 0 0 -64 21 0 0 -64 9 0 0 -64 95 0"/>
</svg>
