<?xml version="1.0" standalone="yes"?>
<!DOCTYPE svg PUBLIC "-//W3C//DTD SVG 1.1//EN"
 "http://www.w3.org/Graphics/SVG/1.1/DTD/svg11.dtd">
<svg xmlns="http://www.w3.org/2000/svg" version="1.1"
  width="100%" height="100%" viewBox="0 0 1024 768"
  style="fill: none; font-family: Helvetica;
 font: Helvetica;
">

<!-- Creator: NGspice -->

<rect x="0" y="0" width="1024" height="768" fill="black" stroke="none"/>
<text stroke="none" fill="white" font-size="16" x="358" y="752">
time
</text>
<text stroke="none" fill="white" font-size="16" x="10" y="16">
tran1: ** sch_path: /foss/designs/xschem/adc-pipe-3b-top_tb-sweep.sch
</text>
<path stroke="white" d="M50 720l0 -672"/>
<text stroke="none" fill="white" font-size="16" x="35" y="728">
0.0
</text>
<path stroke="white" stroke-dasharray="1,2" d="M134 720l0 -672"/>
<text stroke="none" fill="white" font-size="16" x="119" y="728">
1.0
</text>
<path stroke="white" stroke-dasharray="1,2" d="M218 720l0 -672"/>
<text stroke="none" fill="white" font-size="16" x="203" y="728">
2.0
</text>
<path stroke="white" stroke-dasharray="1,2" d="M302 720l0 -672"/>
<text stroke="none" fill="white" font-size="16" x="287" y="728">
3.0
</text>
<path stroke="white" stroke-dasharray="1,2" d="M386 720l0 -672"/>
<text stroke="none" fill="white" font-size="16" x="371" y="728">
4.0
</text>
<path stroke="white" stroke-dasharray="1,2" d="M470 720l0 -672"/>
<text stroke="none" fill="white" font-size="16" x="455" y="728">
5.0
</text>
<path stroke="white" stroke-dasharray="1,2" d="M554 720l0 -672"/>
<text stroke="none" fill="white" font-size="16" x="539" y="728">
6.0
</text>
<path stroke="white" stroke-dasharray="1,2" d="M638 720l0 -672"/>
<text stroke="none" fill="white" font-size="16" x="623" y="728">
7.0
</text>
<path stroke="white" stroke-dasharray="1,2" d="M722 720l0 -672"/>
<text stroke="none" fill="white" font-size="16" x="707" y="728">
8.0
</text>
<path stroke="white" stroke-dasharray="1,2" d="M806 720l0 -672"/>
<text stroke="none" fill="white" font-size="16" x="791" y="728">
9.0
</text>
<path stroke="white" stroke-dasharray="1,2" d="M890 720l0 -672"/>
<text stroke="none" fill="white" font-size="16" x="870" y="728">
10.0
</text>
<path stroke="white" stroke-dasharray="1,2" d="M974 720l0 -672"/>
<text stroke="none" fill="white" font-size="16" x="954" y="728">
11.0
</text>
<text stroke="none" fill="white" font-size="16" x="614" y="752">
ms
</text>
<path stroke="white" d="M50 720l924 0"/>
<text stroke="none" fill="white" font-size="16" x="18" y="728">
0.0
</text>
<path stroke="white" stroke-dasharray="1,2" d="M50 624l924 0"/>
<text stroke="none" fill="white" font-size="16" x="18" y="632">
1.0
</text>
<path stroke="white" stroke-dasharray="1,2" d="M50 528l924 0"/>
<text stroke="none" fill="white" font-size="16" x="18" y="536">
2.0
</text>
<path stroke="white" stroke-dasharray="1,2" d="M50 432l924 0"/>
<text stroke="none" fill="white" font-size="16" x="18" y="440">
3.0
</text>
<path stroke="white" stroke-dasharray="1,2" d="M50 336l924 0"/>
<text stroke="none" fill="white" font-size="16" x="18" y="344">
4.0
</text>
<path stroke="white" stroke-dasharray="1,2" d="M50 240l924 0"/>
<text stroke="none" fill="white" font-size="16" x="18" y="248">
5.0
</text>
<path stroke="white" stroke-dasharray="1,2" d="M50 144l924 0"/>
<text stroke="none" fill="white" font-size="16" x="18" y="152">
6.0
</text>
<path stroke="white" stroke-dasharray="1,2" d="M50 48l924 0"/>
<text stroke="none" fill="white" font-size="16" x="18" y="56">
7.0
</text>
<text stroke="none" fill="white" font-size="16" x="10" y="32">
     
</text>
<path stroke="red" d="M462 23l46 0"/>
<text stroke="none" fill="white" font-size="16" x="518" y="32">
vdig
</text>
<path stroke="red" d="M54 720l0 -672 97 0M151 144l0 -96M151 144l8 0M159 240l0 -96M159 240l21 0M180 336l0 -96M180 336l80 0M260 432l0 -96M260 432l88 0M348 528l0 -96M348 528l21 0M369 624l0 -96M369 624l9 0M378 720l0 -96M378 720l194 0 0 -96 8 0 0 -96"/>
<path stroke="red" d="M580 528l21 0 0 -96 89 0 0 -96 79 0 0 -96 21 0 0 -96 9 0 0 -96 95 0"/>
</svg>
